<?xml version="1.0" encoding="iso-8859-1"?>
<!-- Generator: Adobe Illustrator 18.0.0, SVG Export Plug-In . SVG Version: 6.00 Build 0)  -->
<!DOCTYPE svg PUBLIC "-//W3C//DTD SVG 1.1//EN" "http://www.w3.org/Graphics/SVG/1.1/DTD/svg11.dtd">
<svg version="1.1" id="Capa_1" xmlns="http://www.w3.org/2000/svg" xmlns:xlink="http://www.w3.org/1999/xlink" x="0px" y="0px"
	 viewBox="0 0 453.356 453.356" style="enable-background:new 0 0 453.356 453.356;" preserveAspectRatio="none">
<g>
	<path d="M223.202,72.378c-3.795-8.35-19.91-7.635-23.104-7.407c-1.928,0.138-3.379,1.813-3.242,3.74
		c0.138,1.929,1.81,3.389,3.741,3.242c0.218-0.016,0.444-0.022,0.665-0.034v4.068c-1.003,0.234-1.63,0.372-1.658,0.378
		c-1.889,0.411-3.087,2.274-2.676,4.163c0.356,1.639,1.806,2.758,3.417,2.758c0.246,0,0.497-0.026,0.747-0.081
		c0.578-0.125,14.209-3.108,20.489-6.248C223.264,76.115,223.981,74.092,223.202,72.378z M208.262,74.211v-2.103
		c1.613,0.177,3.135,0.44,4.438,0.792C211.248,73.365,209.73,73.807,208.262,74.211z" fill="red" />
	<path d="M165.981,183.537c-0.453-1.359-1.688-2.305-3.118-2.388c-1.429-0.085-2.766,0.713-3.373,2.011
		c-6.107,13.052-15.664,24.877-15.76,24.995c-0.964,1.187-1.047,2.863-0.203,4.139c0.057,0.086,5.851,8.827,20.757,29.734
		c0.664,0.931,1.73,1.468,2.849,1.468c0.204,0,0.41-0.018,0.615-0.055c1.331-0.237,2.406-1.22,2.762-2.524
		C174.236,227.255,169.199,193.191,165.981,183.537z M164.785,230.646c-7.53-10.641-11.959-17.098-14.017-20.13
		c2.27-2.978,6.579-8.899,10.684-16.027C163.438,204.858,165.152,220.019,164.785,230.646z" fill="red" />
	<path d="M182.677,170.811c6.246,0,11.328-5.081,11.328-11.327s-5.082-11.328-11.328-11.328s-11.328,5.082-11.328,11.328
		S176.431,170.811,182.677,170.811z M182.677,155.155c2.386,0,4.328,1.941,4.328,4.328c0,2.386-1.941,4.327-4.328,4.327
		s-4.328-1.941-4.328-4.327C178.349,157.097,180.291,155.155,182.677,155.155z" fill="red" />
	<path d="M221.927,163.811c-6.246,0-11.328,5.082-11.328,11.328s5.082,11.327,11.328,11.327s11.328-5.081,11.328-11.327
		S228.173,163.811,221.927,163.811z M221.927,179.466c-2.386,0-4.328-1.941-4.328-4.327c0-2.387,1.941-4.328,4.328-4.328
		s4.328,1.941,4.328,4.328C226.254,177.524,224.313,179.466,221.927,179.466z" fill="red" />
	<circle cx="189.516" cy="185.904" r="4.27" fill="red" />
	<circle cx="194.083" cy="209.804" r="4.27" fill="red" />
	<circle cx="250.085" cy="150.537" r="4.27" fill="red" />
	<circle cx="269.095" cy="150.537" r="4.27" fill="red" />
	<path d="M230.155,380.979c2.985,6.566,13.589,7.526,19.535,7.526c1.614,0,2.886-0.07,3.567-0.119
		c1.928-0.138,3.38-1.813,3.242-3.74s-1.813-3.362-3.74-3.242c-0.096,0.007-0.196,0.009-0.293,0.015v-4.137
		c0.787-0.182,1.262-0.286,1.286-0.292c1.889-0.411,3.087-2.275,2.676-4.164c-0.411-1.889-2.277-3.088-4.164-2.676
		c-0.577,0.125-14.208,3.109-20.489,6.249C230.092,377.241,229.376,379.265,230.155,380.979z M245.466,379.043v2.241
		c-1.75-0.175-3.407-0.449-4.809-0.828C242.233,379.952,243.884,379.475,245.466,379.043z" fill="red" />
	<path d="M287.376,269.819c0.453,1.359,1.688,2.305,3.118,2.388c0.068,0.004,0.136,0.006,0.204,0.006
		c1.352,0,2.591-0.781,3.169-2.017c6.107-13.052,15.664-24.877,15.76-24.995c0.964-1.187,1.047-2.863,0.204-4.139
		c-0.057-0.086-5.851-8.827-20.757-29.734c-0.785-1.101-2.138-1.653-3.464-1.413c-1.331,0.237-2.406,1.22-2.762,2.524
		C279.121,226.1,284.157,260.164,287.376,269.819z M288.572,222.709c7.529,10.642,11.959,17.099,14.017,20.131
		c-2.27,2.978-6.579,8.899-10.683,16.026C289.919,248.497,288.205,233.337,288.572,222.709z" fill="red" />
	<path d="M270.68,282.545c-6.246,0-11.328,5.082-11.328,11.328s5.082,11.327,11.328,11.327s11.328-5.081,11.328-11.327
		S276.926,282.545,270.68,282.545z M270.68,298.2c-2.386,0-4.328-1.941-4.328-4.327c0-2.387,1.941-4.328,4.328-4.328
		s4.328,1.941,4.328,4.328C275.008,296.259,273.066,298.2,270.68,298.2z" fill="red" />
	<path d="M231.43,289.545c6.246,0,11.328-5.081,11.328-11.327s-5.082-11.328-11.328-11.328s-11.328,5.082-11.328,11.328
		S225.184,289.545,231.43,289.545z M231.43,273.89c2.386,0,4.328,1.941,4.328,4.328c0,2.386-1.941,4.327-4.328,4.327
		s-4.328-1.941-4.328-4.327C227.102,275.831,229.044,273.89,231.43,273.89z" fill="red" />
	<circle cx="263.841" cy="267.452" r="4.27" fill="red" />
	<circle cx="259.833" cy="243.552" r="4.27" fill="red" />
	<circle cx="203.271" cy="302.819" r="4.27" fill="red" />
	<circle cx="184.262" cy="302.819" r="4.27" fill="red" />
	<path d="M363.265,0h-44.317H166.973H90.091c-1.933,0-3.5,1.567-3.5,3.5v446.356c0,1.933,1.567,3.5,3.5,3.5h44.317h151.976h76.882
		c1.933,0,3.5-1.567,3.5-3.5V3.5C366.765,1.567,365.198,0,363.265,0z M342.388,295.105c4.973,9.392,12.051,27.654,3.618,35.354
		c-3.195,2.918-5.062,2.389-5.676,2.212c-4.642-1.318-8.777-10.999-10.052-15.479c-0.35-1.239-1.353-2.186-2.61-2.465
		c-1.256-0.278-2.566,0.155-3.407,1.129l-4.478,5.185c-0.073,0.085-0.227,0.265-0.548,0.144c-0.324-0.117-0.328-0.35-0.33-0.462
		l-0.194-11.225L342.388,295.105z M303.442,310.587c-1.475-2.094-3.729-5.482-6.324-9.999l62.646-25.972v1.972l-0.106-0.174
		L303.442,310.587z M287.895,320.038c-0.472-1.446-1.175-2.93-2.175-4.431c-0.046-0.069-0.1-0.133-0.148-0.201
		c-0.011-0.014-0.02-0.028-0.031-0.042c-2.396-3.334-7.34-5.201-14.717-5.542c-3.223-0.155-6.77-0.003-10.432,0.419
		c-2.311-14.718-11.043-74.573-7.202-115.545h11.722c-1.191,6.823-1.906,14.041-1.906,21.569c0,24.288,9.24,48.761,17.215,65.379
		c6.178,15.957,13.497,27.357,17.203,32.602L287.895,320.038z M259.94,342.604c-2.461,0.573-6.03,0.958-8.09-0.498
		c-1.578-1.116-3.761-0.741-4.878,0.836c-1.116,1.578-0.742,3.763,0.836,4.879c2.477,1.752,5.408,2.307,8.127,2.307
		c1.656,0,3.231-0.207,4.578-0.473l0.436,3.824c-3.557-0.21-7.811,0.105-10.188,2.323c-1.395,1.302-2.044,3.093-1.827,5.044
		c0.199,1.79,1.714,3.113,3.474,3.113c0.129,0,0.26-0.007,0.391-0.021c1.685-0.188,2.956-1.541,3.1-3.166
		c1.414-0.46,5.048-0.422,8.194,0.119c0.762,0.266,2.236,1.013,2.592,1.922c0.271,0.69-0.181,1.707-0.577,2.386
		c-7.78,12.814-7.735,25.542-7.042,31.896l-8.97,0.462c-11.968-0.116-17.245-6.978-17.513-7.338
		c-1.13-1.555-3.303-1.907-4.869-0.786c-1.571,1.126-1.932,3.312-0.807,4.883c0.137,0.192,1.515,2.058,4.261,4.145
		c-0.06,0-0.114,0.002-0.175,0.002c-4.867,0-9.721-0.611-14.43-1.8c-0.208-7.555-1.439-30.333-8.692-44.366
		c-3.626-7.016-3.203-14.388-2.637-18.137h10.824c1.448,0,2.813,0.567,3.842,1.597c0.057,0.057,0.113,0.118,0.166,0.181
		c0.013,0.016,0.027,0.032,0.041,0.048c0.013,0.015,0.025,0.029,0.039,0.044c0.872,0.988,1.353,2.256,1.353,3.57
		c0,2.999-2.44,5.439-5.439,5.439c-1.933,0-3.5,1.567-3.5,3.5s1.567,3.5,3.5,3.5c6.859,0,12.439-5.58,12.439-12.439
		c0-2.015-0.49-3.98-1.41-5.739l3.61-4.574c0.905-1.118,2.107-2.183,3.528-3.189c-0.89,2.376-1.401,5.098-1.26,8.191
		c0.085,1.877,1.634,3.341,3.494,3.341c0.054,0,0.108-0.001,0.162-0.004c1.931-0.088,3.425-1.724,3.338-3.655
		c-0.415-9.132,7.88-13.72,9.238-14.409c2.467-0.686,5.01-1.26,7.541-1.705c-5.277,4.139-8.874,9.779-9.76,15.76
		c-0.283,1.912,1.037,3.691,2.949,3.975c0.174,0.026,0.347,0.039,0.518,0.038c1.706,0,3.2-1.249,3.458-2.987
		c1.128-7.616,8.02-12.781,13.579-14.891c5.103-1.935,9.904-1.823,12.715,0.233c1.387,2.303,1.643,4.409,1.383,6.156
		c-0.51-0.445-1.068-0.817-1.674-1.117c-2.583-1.274-5.663-1.054-9.149,0.657C264.301,328.84,260.201,335.406,259.94,342.604z
		 M237.832,412.751c-1,0.054-2.038,0.079-3.173,0.079c-10.375,0-20.689-2.476-29.824-7.158c-9.55-4.911-20.35-7.646-31.228-7.907
		l-6.345-0.156l0.711-7.342l5.001,0.129c9.263,0.236,18.452,2.69,26.578,7.101c9.634,5.212,20.506,7.967,31.441,7.967
		c1.213,0,2.318-0.029,3.362-0.088l15.9-0.818c0.046,0,0.09,0.003,0.136,0.003c1.359,0,2.787-0.076,4.275-0.229l6.306-0.324
		l3.499,7.447L237.832,412.751z M130.456,327.16l-36.865-35.509v-8.454l41.147,39.879c0.679,0.658,1.558,0.986,2.436,0.986
		c0.888,0,1.776-0.336,2.458-1.008c1.706-1.682,39.896-39.894,43.653-88.953c0.033,0.998,0.072,1.996,0.072,2.993
		c0,43.494-25.826,77.379-26.085,77.714c-0.819,1.056-0.966,2.485-0.378,3.686c0.587,1.199,1.807,1.96,3.143,1.96h51.25
		c1.35,0,2.579-0.776,3.16-1.994c7.513-15.769,29.361-22.188,36.604-23.92c0.996,7.473,1.885,13.348,2.428,16.798
		c-11.575,2.338-23.044,7.149-28.248,13.578l-3.043,3.856c-1.85-1.053-3.947-1.612-6.128-1.612h-61.982H130.456z M129.438,371.024
		c2.604,4.991,3.979,10.523,3.979,16.254c0,5.519-1.277,10.871-3.707,15.729c-1.36-1.626-2.839-3.15-4.426-4.558
		c1.235-3.606,1.871-7.377,1.871-11.25c0-4.063-0.701-8.012-2.063-11.781C126.648,374.063,128.099,372.594,129.438,371.024z
		 M133.885,364.717c0.555-0.964,1.082-1.948,1.562-2.96c6.928,6.598,10.957,15.846,10.957,25.521
		c0,9.682-3.833,18.662-10.656,25.262c-0.487-1.065-1.028-2.103-1.601-3.12c4.105-6.653,6.27-14.258,6.27-22.142
		C140.417,379.211,138.161,371.462,133.885,364.717z M119.141,379.751c0.671,2.409,1.014,4.9,1.014,7.449
		c0,2.326-0.284,4.605-0.842,6.816c-1.492-0.916-3.043-1.743-4.648-2.469v-9.452C116.212,381.4,117.705,380.616,119.141,379.751z
		 M110.965,158.253c-4.98-9.384-12.068-27.637-3.615-35.355c3.196-2.919,5.063-2.389,5.676-2.212
		c4.642,1.318,8.777,10.999,10.051,15.479c0.35,1.239,1.353,2.186,2.609,2.465c1.259,0.277,2.566-0.155,3.408-1.129l4.478-5.185
		c0.073-0.086,0.225-0.262,0.549-0.144c0.324,0.117,0.328,0.35,0.33,0.461l0.194,11.225L110.965,158.253z M149.914,142.769
		c1.475,2.094,3.729,5.482,6.324,10L93.591,178.74v-1.972l0.106,0.174L149.914,142.769z M165.461,133.318
		c0.472,1.446,1.175,2.93,2.176,4.431c0.045,0.068,0.098,0.131,0.146,0.198c0.012,0.015,0.022,0.031,0.034,0.046
		c2.396,3.333,7.339,5.201,14.716,5.542c0.808,0.037,1.635,0.056,2.481,0.056c2.525,0,5.205-0.169,7.949-0.487
		c2.308,14.697,11.046,74.573,7.204,115.557H188.45c1.191-6.822,1.906-14.039,1.906-21.566c0-24.329-9.266-48.829-17.226-65.395
		c-6.177-15.95-13.494-27.345-17.199-32.589L165.461,133.318z M193.417,110.752c2.382-0.53,5.846-0.825,8.322,0.648
		c0.561,0.334,1.177,0.493,1.786,0.493c1.194-0.001,2.357-0.611,3.012-1.712c0.988-1.661,0.442-3.809-1.219-4.797
		c-4.19-2.493-9.084-2.27-12.469-1.644l-0.44-3.861c0.582,0.034,1.182,0.055,1.79,0.055c3.108,0,6.41-0.526,8.397-2.381
		c1.396-1.302,2.044-3.093,1.828-5.044c-0.213-1.921-1.946-3.312-3.865-3.092c-1.685,0.187-2.957,1.54-3.101,3.166
		c-1.414,0.46-5.045,0.421-8.192-0.118c-0.761-0.266-2.237-1.013-2.594-1.923c-0.271-0.69,0.181-1.707,0.577-2.386
		c7.78-12.814,7.735-25.542,7.042-31.896l8.975-0.462c11.964,0.116,17.24,6.977,17.508,7.338c0.684,0.941,1.75,1.441,2.833,1.441
		c0.706,0,1.418-0.213,2.036-0.655c1.571-1.126,1.932-3.312,0.807-4.883c-0.138-0.192-1.518-2.058-4.269-4.146
		c0.063,0,0.12-0.002,0.183-0.002c4.867,0,9.72,0.612,14.43,1.8c0.208,7.555,1.439,30.333,8.692,44.367
		c3.626,7.016,3.204,14.388,2.637,18.137h-10.823c-1.448,0-2.813-0.567-3.847-1.602c-0.055-0.055-0.11-0.115-0.161-0.176
		c-0.009-0.011-0.019-0.022-0.028-0.033c-0.001-0.002-0.002-0.003-0.004-0.005c-0.016-0.019-0.032-0.036-0.047-0.055
		c-0.873-0.988-1.353-2.256-1.353-3.569c0-3,2.44-5.44,5.44-5.44c1.933,0,3.5-1.567,3.5-3.5s-1.567-3.5-3.5-3.5
		c-6.859,0-12.44,5.581-12.44,12.44c0,2.015,0.49,3.98,1.41,5.739l-3.61,4.574c-0.905,1.118-2.106,2.182-3.527,3.188
		c0.89-2.376,1.4-5.097,1.26-8.19c-0.088-1.931-1.743-3.455-3.655-3.337c-1.931,0.088-3.425,1.724-3.338,3.655
		c0.415,9.124-7.866,13.712-9.235,14.407c-2.468,0.687-5.012,1.261-7.544,1.706c5.277-4.138,8.874-9.778,9.76-15.76
		c0.283-1.912-1.038-3.691-2.95-3.975c-1.908-0.287-3.691,1.037-3.975,2.949c-1.128,7.616-8.02,12.78-13.578,14.89
		c-5.103,1.937-9.905,1.823-12.716-0.234c-1.386-2.303-1.642-4.408-1.383-6.155c0.51,0.444,1.067,0.817,1.673,1.116
		c2.583,1.277,5.664,1.057,9.15-0.656C189.056,124.517,193.156,117.95,193.417,110.752z M215.525,40.605
		c1-0.054,2.038-0.079,3.173-0.079c10.375,0,20.689,2.476,29.824,7.158c9.551,4.911,20.35,7.646,31.228,7.907l6.345,0.156
		l-0.711,7.342l-5.002-0.13c-9.262-0.235-18.451-2.689-26.578-7.1c-9.635-5.213-20.506-7.968-31.441-7.968
		c-1.201,0-2.306,0.029-3.362,0.089l-16.065,0.827c-1.361,0-2.78,0.065-4.269,0.22l-6.282,0.323l-3.499-7.447L215.525,40.605z
		 M322.901,126.196l36.864,35.501v8.455l-41.147-39.872c-1.366-1.323-3.538-1.314-4.893,0.021
		c-1.706,1.682-39.87,39.869-43.649,88.904c-0.031-0.981-0.071-1.962-0.071-2.941c0-43.494,25.826-77.38,26.085-77.715
		c0.819-1.056,0.966-2.485,0.378-3.686c-0.587-1.199-1.807-1.96-3.143-1.96h-51.26c-1.35,0-2.58,0.776-3.16,1.996
		c-7.507,15.772-29.361,22.189-36.598,23.92c-0.997-7.486-1.888-13.368-2.431-16.816c2.119-0.428,4.235-0.938,6.309-1.526
		c0.024-0.005,0.047-0.014,0.071-0.02c9.227-2.625,17.63-6.78,21.87-12.018l3.044-3.856c1.849,1.052,3.947,1.612,6.128,1.612h61.982
		H322.901z M323.919,82.332c-2.604-4.991-3.979-10.523-3.979-16.255c0-5.519,1.277-10.871,3.707-15.728
		c1.36,1.626,2.839,3.15,4.426,4.558c-1.235,3.607-1.87,7.378-1.87,11.25c0,4.063,0.701,8.012,2.063,11.781
		C326.709,79.294,325.257,80.762,323.919,82.332z M319.471,88.64c-0.555,0.964-1.082,1.948-1.562,2.96
		c-6.928-6.598-10.957-15.846-10.957-25.521c0-9.682,3.833-18.662,10.656-25.262c0.487,1.065,1.028,2.103,1.601,3.121
		c-4.105,6.651-6.27,14.257-6.27,22.14C312.94,74.146,315.195,81.895,319.471,88.64z M334.216,73.604
		c-0.671-2.409-1.014-4.9-1.014-7.448c0-2.326,0.284-4.605,0.842-6.815c1.492,0.916,3.043,1.743,4.648,2.468v9.451
		C337.145,71.956,335.652,72.74,334.216,73.604z M322.151,282.632c4.886-10.632,16.212-30.545,37.614-46.063v8.002
		c-14.354,11.719-23.752,25.033-29.278,34.606L322.151,282.632z M359.765,205.372c-0.927,0.335-2.731,1.047-5.226,2.301
		l-45.676-61.105c3.059-3.88,5.677-6.876,7.428-8.795l43.276,41.936l0.198-0.205V205.372z M304.468,152.38l43.921,58.758
		c-2.096,1.304-4.409,2.865-6.89,4.72l-41.936-56.37C301.23,156.947,302.877,154.573,304.468,152.38z M295.583,165.863
		l40.445,54.367c-4.627,3.934-9.653,8.818-14.846,14.864l-36.622-46.846C287.747,180.071,291.61,172.536,295.583,165.863z
		 M281.791,196.07l34.844,44.572c-8.977,11.475-18.233,26.487-26.601,46.029c-6.779-15.096-13.262-35.773-13.262-59.712
		C276.772,216.163,278.729,205.756,281.791,196.07z M359.765,212.976v15.083c-31.794,21.03-44.172,51.123-46.782,58.373
		l-18.455,7.651C318.073,236.041,350.222,217.402,359.765,212.976z M345.692,138.426V41.378l14.074-13.098v123.699L345.692,138.426z
		 M266.322,187.695H205.61c-0.166-1.741-0.335-3.491-0.517-5.268c-0.606-5.926-1.252-11.523-1.886-16.618
		c7.196-1.609,31.08-8.157,40.988-25.906h42.429C281.158,148.317,271.418,165.501,266.322,187.695z M187.04,265.661h60.706
		c0.166,1.741,0.335,3.491,0.517,5.268c0.606,5.927,1.253,11.526,1.886,16.621c-7.202,1.611-31.079,8.162-40.992,25.904h-42.42
		C172.204,305.041,181.945,287.856,187.04,265.661z M206.242,194.695h17.523v28.482h-15.817
		C207.67,214.347,207.104,204.851,206.242,194.695z M208.107,230.178h15.659v28.483H207.2
		C207.96,250.268,208.257,240.745,208.107,230.178z M247.114,258.661h-16.348v-28.483h14.642
		C245.686,239.009,246.253,248.505,247.114,258.661z M245.25,223.178h-14.484v-28.482h15.391
		C245.396,203.088,245.099,212.611,245.25,223.178z M251.704,97.847c-5.879-11.375-7.413-30.134-7.812-38.881
		c2.25,0.88,4.448,1.896,6.578,3.049c0.766,0.416,1.543,0.81,2.325,1.194c0.62,5.642,3.148,25.832,8.545,36.615
		c3.753,7.499,3.251,15.428,2.65,19.373h-8.791C255.815,114.269,255.909,105.983,251.704,97.847z M268.733,68.647
		c0.686,5.284,3.227,22.359,8.531,32.436c3.677,6.985,3.225,14.369,2.64,18.113h-8.836c0.657-5.121,0.835-13.911-3.468-22.506
		c-3.994-7.98-6.344-22.583-7.371-30.381C263.007,67.274,265.849,68.059,268.733,68.647z M296.441,119.196h-9.458
		c0.638-4.946,0.749-13.253-3.525-21.373c-4.208-7.996-6.584-21.75-7.508-28.117c1.414,0.128,2.833,0.216,4.253,0.252l5.262,0.137
		c0.907,6.473,3.45,21.705,8.335,30.988C297.475,108.065,297.025,115.45,296.441,119.196z M158.828,159.273
		c-23.544,58.043-55.693,76.681-65.237,81.107v-15.084c31.793-21.028,44.172-51.12,46.782-58.372L158.828,159.273z M93.591,247.985
		c0.927-0.335,2.732-1.047,5.226-2.302l45.676,61.105c-3.059,3.88-5.676,6.876-7.428,8.796l-43.268-41.936l-0.207,0.214V247.985z
		 M148.889,300.977l-43.922-58.758c2.096-1.303,4.409-2.865,6.889-4.72l41.936,56.37C152.127,296.41,150.48,298.784,148.889,300.977
		z M157.774,287.494l-40.446-54.367c4.627-3.934,9.654-8.818,14.847-14.865l36.622,46.846
		C165.61,273.285,161.747,280.821,157.774,287.494z M171.566,257.286l-34.844-44.572c8.977-11.474,18.233-26.487,26.601-46.029
		c6.78,15.096,13.262,35.773,13.262,59.712C176.585,237.193,174.628,247.6,171.566,257.286z M93.591,186.319l18.066-7.49
		c-4.473,6.498-10.415,13.794-18.066,20.735V186.319z M93.591,208.786c14.353-11.716,23.752-25.032,29.28-34.606l8.334-3.455
		c-4.886,10.632-16.213,30.545-37.614,46.063V208.786z M107.665,314.926v97.052l-14.074,13.104V301.37L107.665,314.926z
		 M201.652,355.51c5.879,11.375,7.413,30.134,7.812,38.881c-2.25-0.88-4.448-1.896-6.578-3.049c-0.729-0.396-1.469-0.772-2.213-1.14
		c-0.348-3.368-2.831-25.621-8.667-37.088c-3.729-7.328-3.243-15.075-2.647-18.954h8.799
		C197.541,339.088,197.447,347.373,201.652,355.51z M184.624,384.709c-0.686-5.284-3.227-22.36-8.53-32.435
		c-3.677-6.985-3.225-14.369-2.64-18.113h8.828c-0.651,5.063-0.806,13.692,3.487,22.128c4.16,8.176,6.534,23.435,7.486,30.802
		C190.436,386.106,187.552,385.306,184.624,384.709z M156.916,334.16h9.458c-0.638,4.946-0.749,13.253,3.525,21.373
		c4.208,7.995,6.584,21.749,7.508,28.117c-1.414-0.129-2.832-0.216-4.253-0.252l-5.263-0.136c-0.906-6.474-3.45-21.706-8.335-30.988
		C155.882,345.291,156.332,337.906,156.916,334.16z M359.765,267.038l-18.065,7.489c4.472-6.497,10.413-13.792,18.065-20.733
		V267.038z M359.765,18.716l-19.958,18.576c-0.711,0.662-1.115,1.591-1.115,2.563v14.103c-7.674-4.368-13.589-11.565-16.249-20.037
		c-0.339-1.081-1.181-1.932-2.259-2.281c-1.078-0.349-2.258-0.156-3.167,0.52c-10.685,7.937-17.064,20.617-17.064,33.92
		c0,13.438,6.481,26.187,17.338,34.105c0.606,0.442,1.33,0.672,2.063,0.672c0.355,0,0.713-0.054,1.061-0.164
		c1.063-0.338,1.9-1.162,2.256-2.219c2.797-8.301,8.514-15.14,16.021-19.373v52.585l-11.952-11.51
		c-0.652-0.628-1.522-0.979-2.428-0.979h-20.793c0.638-4.946,0.749-13.253-3.525-21.373c-5.185-9.852-7.589-28.443-7.921-31.186
		l1.67-17.262L320.864,7h38.902V18.716z M312.553,7l-25.159,39.312c-0.299,0.467-0.482,0.998-0.536,1.55l-0.087,0.901l-6.851-0.169
		c-0.833-0.02-1.664-0.079-2.495-0.131v-6.808h0.997c1.933,0,3.5-1.567,3.5-3.5s-1.567-3.5-3.5-3.5h-0.997v-3.209
		c0-1.933-1.567-3.5-3.5-3.5s-3.5,1.567-3.5,3.5v3.209h-0.997c-1.933,0-3.5,1.567-3.5,3.5s1.567,3.5,3.5,3.5h0.997v5.99
		c-4.904-0.84-9.695-2.228-14.247-4.137v-7.444h0.997c1.933,0,3.5-1.567,3.5-3.5s-1.567-3.5-3.5-3.5h-0.997v-3.21
		c0-1.933-1.567-3.5-3.5-3.5s-3.5,1.567-3.5,3.5v3.21h-0.997c-1.933,0-3.5,1.567-3.5,3.5s1.567,3.5,3.5,3.5h0.997v4.163
		c-4.898-2.268-10.062-3.984-15.365-5.109v-6.322h0.997c1.933,0,3.5-1.567,3.5-3.5s-1.567-3.5-3.5-3.5h-0.997v-3.21
		c0-1.933-1.567-3.5-3.5-3.5s-3.5,1.567-3.5,3.5v3.21h-0.997c-1.933,0-3.5,1.567-3.5,3.5s1.567,3.5,3.5,3.5h0.997v5.192
		c-2.691-0.303-5.401-0.461-8.116-0.461c-1.261,0-2.42,0.029-3.529,0.088l-7.657,0.373v-6.869h0.997c1.933,0,3.5-1.567,3.5-3.5
		s-1.567-3.5-3.5-3.5h-0.997v-3.209c0-1.933-1.567-3.5-3.5-3.5s-3.5,1.567-3.5,3.5v3.209h-0.997c-1.933,0-3.5,1.567-3.5,3.5
		s1.567,3.5,3.5,3.5h0.997v7.21l-14.222,0.693v-6.225h0.997c1.933,0,3.5-1.567,3.5-3.5s-1.567-3.5-3.5-3.5h-0.997v-3.21
		c0-1.933-1.567-3.5-3.5-3.5s-3.5,1.567-3.5,3.5v2.895L172.485,7H312.553z M164.75,7l22.135,47.106
		c0.451,2.154,2.953,16.299-5.651,30.472c-2.204,3.778-1.789,6.755-1.053,8.587c1.061,2.64,3.28,4.245,5.002,5.14l1.163,10.2
		c0.62,5.406-2.122,10.584-6.826,12.886c-1.599,0.783-2.6,0.85-2.969,0.665c-0.396-0.195-0.995-1.104-1.377-3.023
		c-0.252-1.266-1.182-2.29-2.417-2.665c-1.238-0.377-2.578-0.038-3.49,0.875c-1.599,1.598-3.513,4.515-4.26,8.159l-23.433,14.245
		l-0.123-7.135c-0.054-3.136-1.995-5.854-4.944-6.922c-2.949-1.066-6.18-0.224-8.231,2.149l-0.57,0.66
		c-2.301-5.373-6.486-12.658-12.756-14.445c-2.845-0.812-7.292-0.814-12.318,3.773c-13.01,11.878-2.15,35.68,2.36,44.157l-11.4,6.93
		V7H164.75z M93.591,434.647l19.959-18.584c0.711-0.662,1.115-1.59,1.115-2.562v-14.103c7.674,4.368,13.589,11.565,16.249,20.037
		c0.339,1.081,1.181,1.932,2.259,2.281c0.354,0.114,0.718,0.171,1.08,0.171c0.743,0,1.476-0.236,2.087-0.69
		c10.685-7.937,17.063-20.617,17.063-33.92c0-13.438-6.481-26.187-17.338-34.105c-0.901-0.656-2.062-0.845-3.123-0.508
		c-1.063,0.338-1.9,1.162-2.256,2.219c-2.797,8.301-8.514,15.14-16.021,19.372v-52.587l11.951,11.512
		c0.652,0.629,1.522,0.979,2.428,0.979h20.793c-0.638,4.946-0.749,13.253,3.525,21.373c5.185,9.851,7.588,28.443,7.921,31.186
		l-1.67,17.262l-27.12,42.375H93.591V434.647z M140.803,446.356l25.16-39.312c0.299-0.467,0.482-0.998,0.536-1.55l0.087-0.901
		l6.851,0.169c0.833,0.02,1.664,0.079,2.495,0.131v6.808h-0.997c-1.933,0-3.5,1.567-3.5,3.5s1.567,3.5,3.5,3.5h0.997v3.209
		c0,1.933,1.567,3.5,3.5,3.5s3.5-1.567,3.5-3.5v-3.209h0.997c1.933,0,3.5-1.567,3.5-3.5s-1.567-3.5-3.5-3.5h-0.997v-5.99
		c4.904,0.84,9.695,2.228,14.246,4.137v7.444h-0.997c-1.933,0-3.5,1.567-3.5,3.5s1.567,3.5,3.5,3.5h0.997v3.209
		c0,1.933,1.567,3.5,3.5,3.5s3.5-1.567,3.5-3.5v-3.209h0.997c1.933,0,3.5-1.567,3.5-3.5s-1.567-3.5-3.5-3.5h-0.997v-4.163
		c4.898,2.268,10.062,3.984,15.365,5.109v6.322h-0.997c-1.933,0-3.5,1.567-3.5,3.5s1.567,3.5,3.5,3.5h0.997v3.209
		c0,1.933,1.567,3.5,3.5,3.5s3.5-1.567,3.5-3.5v-3.209h0.997c1.933,0,3.5-1.567,3.5-3.5s-1.567-3.5-3.5-3.5h-0.997v-5.192
		c2.691,0.303,5.401,0.461,8.116,0.461c1.261,0,2.42-0.029,3.529-0.088l7.658-0.373v6.869h-0.997c-1.933,0-3.5,1.567-3.5,3.5
		s1.567,3.5,3.5,3.5h0.997v3.209c0,1.933,1.567,3.5,3.5,3.5s3.5-1.567,3.5-3.5v-3.209h0.997c1.933,0,3.5-1.567,3.5-3.5
		s-1.567-3.5-3.5-3.5h-0.997v-7.211l14.222-0.693v6.226h-0.997c-1.933,0-3.5,1.567-3.5,3.5s1.567,3.5,3.5,3.5h0.997v3.209
		c0,1.933,1.567,3.5,3.5,3.5s3.5-1.567,3.5-3.5v-2.893l6.804,14.48H140.803z M288.606,446.356l-22.135-47.107
		c-0.452-2.16-2.951-16.301,5.652-30.471c2.204-3.778,1.789-6.755,1.053-8.587c-1.061-2.64-3.28-4.245-5.002-5.14l-1.164-10.2
		c-0.619-5.406,2.123-10.584,6.827-12.886c1.599-0.785,2.598-0.848,2.968-0.666c0.397,0.196,0.996,1.105,1.378,3.024
		c0.252,1.266,1.182,2.29,2.417,2.665c1.237,0.376,2.578,0.037,3.49-0.875c1.599-1.598,3.514-4.515,4.26-8.161l23.433-14.244
		l0.123,7.134c0.054,3.137,1.995,5.854,4.945,6.923c2.947,1.065,6.18,0.225,8.23-2.149l0.57-0.66
		c2.301,5.373,6.486,12.658,12.756,14.445c0.843,0.24,1.827,0.41,2.926,0.41c2.607,0,5.856-0.956,9.392-4.184
		c13.01-11.878,2.149-35.681-2.36-44.157l11.4-6.929v161.814H288.606z" fill="red" />
</g>
<g>
</g>
<g>
</g>
<g>
</g>
<g>
</g>
<g>
</g>
<g>
</g>
<g>
</g>
<g>
</g>
<g>
</g>
<g>
</g>
<g>
</g>
<g>
</g>
<g>
</g>
<g>
</g>
<g>
</g>
</svg>
