<?xml version="1.0" encoding="iso-8859-1"?>
<!-- Generator: Adobe Illustrator 18.0.0, SVG Export Plug-In . SVG Version: 6.00 Build 0)  -->
<!DOCTYPE svg PUBLIC "-//W3C//DTD SVG 1.1//EN" "http://www.w3.org/Graphics/SVG/1.1/DTD/svg11.dtd">
<svg version="1.1" id="Capa_1" xmlns="http://www.w3.org/2000/svg" xmlns:xlink="http://www.w3.org/1999/xlink" x="0px" y="0px"
	 viewBox="0 0 453.356 453.356" style="enable-background:new 0 0 453.356 453.356;" xml:space="preserve">
<g>
	<path d="M363.265,0H90.091c-1.933,0-3.5,1.567-3.5,3.5v446.356c0,1.933,1.567,3.5,3.5,3.5h273.174c1.933,0,3.5-1.567,3.5-3.5V3.5
		C366.765,1.567,365.198,0,363.265,0z M245.329,433.217l8.3-2.176l8.531,15.315h-14.705L245.329,433.217z M258.424,425.265
		c-0.776-1.395-2.394-2.085-3.945-1.683l-14,3.67c-1.744,0.457-2.855,2.165-2.567,3.944l2.453,15.16h-7.011l-2.075-13.905
		c-0.256-1.715-1.729-2.983-3.462-2.983h-23.34c-1.669,0-3.106,1.179-3.432,2.815l-2.808,14.073h-7.308l2.453-15.16
		c0.288-1.779-0.823-3.487-2.567-3.944l-14-3.67c-1.543-0.406-3.168,0.287-3.945,1.683l-11.748,21.092h-10.057l19.848-28.246
		c13.691,6.549,28.839,9.998,44.005,9.998c7.026,0,14.075-0.731,20.95-2.176c7.902-1.659,15.596-4.263,22.914-7.75l17.618,28.174
		h-6.226L258.424,425.265z M226.274,446.356h-20.901l1.973-9.889h17.453L226.274,446.356z M183.837,446.356h-14.704l8.531-15.315
		l8.3,2.176L183.837,446.356z M208.024,20.138l-8.3,2.176L191.2,7h14.705L208.024,20.138z M194.927,28.09
		c0.628,1.129,1.811,1.798,3.058,1.798c0.294,0,0.593-0.037,0.888-0.114l14-3.67c1.743-0.457,2.854-2.164,2.568-3.943L212.996,7
		h7.005l2.083,13.906c0.257,1.714,1.729,2.981,3.461,2.981h23.33c1.669,0,3.105-1.179,3.433-2.815L255.116,7h7.31l-2.446,15.16
		c-0.287,1.779,0.824,3.486,2.567,3.943l14,3.67c0.296,0.077,0.594,0.114,0.888,0.114c1.247,0,2.43-0.669,3.059-1.798L292.232,7
		h10.064l-19.856,28.246c-13.691-6.549-28.84-9.998-44.006-9.998c-7.018,0-14.062,0.731-20.939,2.175
		c-7.911,1.662-15.608,4.266-22.923,7.751L176.962,7h6.227L194.927,28.09z M227.079,7h20.899l-1.973,9.888H228.56L227.079,7z
		 M269.516,7h14.704l-8.523,15.313l-8.3-2.176L269.516,7z M290.303,138.932l2.778-4.464l66.685,43.34v6.276L290.303,138.932z
		 M299.655,172.177c1.979,15.763,7.086,30.84,14.821,44.41c-8.658-8.322-18.72-15.221-29.832-20.289L299.655,172.177z
		 M298.759,160.369l-20.663,33.204c-5.95-2.249-12.162-3.984-18.586-5.155l27.095-43.541l12.206,7.934
		c-0.056,1.515-0.094,3.021-0.094,4.487C298.716,158.401,298.733,159.403,298.759,160.369z M314.369,311.745
		c-4.329-3.143-8.438-6.538-12.289-10.127c0.295-2.447,0.451-4.949,0.451-7.47c0-25.369-14.927-47.759-38.179-57.551
		c-0.111-0.427-0.222-0.848-0.331-1.291c-0.544-2.167-1.788-7.988-2.06-10.254c-0.14-1.165-0.309-2.573-0.509-4.194
		c14.775,4.315,28.093,13.113,37.889,25.158c11.014,13.544,17.08,30.638,17.08,48.132
		C316.421,300.116,315.725,306.013,314.369,311.745z M216.464,275.101c-0.561-0.299-1.112-0.617-1.677-0.947
		c-5.059-2.946-9.039-7.579-11.213-13.058c-0.765-1.908-1.305-3.93-1.604-6.007c-0.912-6.325-1.747-12.498-2.483-18.357
		c-0.498-3.877-0.877-7.018-1.145-9.246c-0.331-2.86-1.713-9.116-2.209-11.128c-0.257-1.037-0.524-2.075-0.799-3.082
		c-4.578-16.932-11.649-32.271-21.035-45.69c13.811-1.997,39.439-2.825,64.267,11.618c5.067,2.947,9.046,7.579,11.21,13.058
		c0.767,1.91,1.306,3.931,1.605,6.006c0.911,6.324,1.746,12.497,2.482,18.357c0.499,3.878,0.877,7.018,1.146,9.261
		c0.341,2.835,1.729,9.163,2.217,11.107c0.184,0.748,0.8,3.1,0.8,3.1c4.583,16.94,11.653,32.275,21.033,45.678
		C265.629,287.71,240.828,288.563,216.464,275.101z M260.803,364.835c-0.668-0.834-1.451-1.595-2.349-2.257
		c-3.03-2.233-6.728-2.902-10.14-2.129l6.1-12.071c1.209-2.389,3.943-3.542,6.5-2.749c2.259,0.7,3.837,2.837,3.837,5.197
		c0,0.302-0.024,0.602-0.071,0.895c-0.704,1.693-2.371,2.815-4.219,2.815c-0.521,0-1.063-0.097-1.567-0.279
		c-1.817-0.662-3.824,0.279-4.483,2.097s0.279,3.824,2.097,4.483c1.279,0.464,2.609,0.699,3.954,0.699
		c0.86,0,1.703-0.101,2.52-0.284L260.803,364.835z M232.813,419.399c-4.614,0.885-9.302,1.427-14,1.621l22.571-43.552
		c0.845,1.295,1.947,2.42,3.273,3.304c1.607,1.07,3.78,0.639,4.854-0.971c1.072-1.608,0.638-3.781-0.971-4.854
		c-1.019-0.68-1.711-1.716-1.948-2.917c-0.222-1.125-0.021-2.267,0.566-3.241c1.904-1.949,4.932-2.206,7.144-0.576
		c2.156,1.589,2.843,4.477,1.65,6.829L232.813,419.399z M216.066,282.804c16.458,8.376,32.889,10.875,46.159,11.041v23.623h-67.731
		L216.066,282.804z M190.138,324.468h72.087v14.276c-4.118-1.005-8.348,0.145-11.351,2.9h-9.892c-4.368,0-8.371,2.564-10.197,6.533
		l-1.524,3.313c-6.657-10.615-18.455-17.355-31.304-17.355h-12.134c-0.599,0-1.189,0.047-1.772,0.114L190.138,324.468z
		 M237.145,351.103c0.688-1.494,2.193-2.459,3.838-2.459h5.453l-6.167,12.203c-0.449-0.452-0.93-0.88-1.457-1.269
		c-1.417-1.044-2.983-1.737-4.596-2.113L237.145,351.103z M160.273,318.89l-66.682-43.334v-6.283l69.462,45.151L160.273,318.89z
		 M153.697,281.185c-1.979-15.768-7.088-30.851-14.827-44.426c8.66,8.326,18.726,15.228,29.841,20.298L153.697,281.185z
		 M166.752,308.48l-12.21-7.937c0.056-1.519,0.094-3.025,0.094-4.485c0-1.091-0.017-2.092-0.043-3.063l20.668-33.211
		c5.95,2.249,12.162,3.984,18.586,5.156L166.752,308.48z M138.987,141.611c4.34,3.146,8.447,6.542,12.29,10.132
		c-0.295,2.445-0.451,4.946-0.451,7.465c0,25.37,14.928,47.761,38.182,57.554c0.11,0.426,2.125,9.312,2.383,11.543
		c0.14,1.164,0.309,2.571,0.509,4.191c-14.774-4.315-28.089-13.113-37.883-25.156c-11.015-13.544-17.081-30.638-17.081-48.132
		C136.935,153.241,137.631,147.343,138.987,141.611z M165.376,167.225c9.061,11.84,16.102,25.434,20.997,40.492
		c-17.555-9.678-28.548-27.996-28.548-48.509c0-0.296,0.012-0.591,0.016-0.886C160.483,161.174,163.014,164.141,165.376,167.225z
		 M192.554,88.521c0.668,0.833,1.451,1.595,2.349,2.256c2.232,1.645,4.826,2.447,7.401,2.447c0.921,0,1.838-0.111,2.737-0.315
		l-6.097,12.067c-1.21,2.389-3.943,3.541-6.501,2.749c-2.259-0.7-3.836-2.837-3.836-5.197c0-0.304,0.024-0.604,0.071-0.894
		c0.704-1.694,2.37-2.816,4.218-2.816c0.52,0,1.063,0.097,1.57,0.28c1.818,0.66,3.824-0.281,4.481-2.101
		c0.657-1.818-0.284-3.824-2.102-4.481c-1.28-0.464-2.609-0.698-3.95-0.698c-0.86,0-1.703,0.101-2.519,0.284L192.554,88.521z
		 M220.542,33.958c4.617-0.886,9.305-1.428,14-1.622l-22.57,43.552c-0.844-1.295-1.947-2.42-3.272-3.304
		c-1.608-1.07-3.781-0.638-4.854,0.971c-1.072,1.607-0.638,3.781,0.97,4.854c1.02,0.68,1.711,1.716,1.949,2.917
		c0.222,1.125,0.021,2.267-0.567,3.241c-1.902,1.948-4.93,2.207-7.143,0.576c-2.156-1.589-2.843-4.477-1.651-6.828L220.542,33.958z
		 M237.29,170.552c-16.445-8.373-32.877-10.882-46.159-11.046v-23.619h67.729L237.29,170.552z M263.215,128.888h-72.085v-14.27
		c0.987,0.241,1.981,0.363,2.963,0.363c3.112,0,6.103-1.175,8.386-3.269h9.893c4.369,0,8.372-2.564,10.198-6.533l1.524-3.313
		c6.656,10.615,18.454,17.355,31.304,17.355h12.134c0.598,0,1.186-0.046,1.769-0.114L263.215,128.888z M216.211,102.253
		c-0.687,1.494-2.194,2.459-3.838,2.459h-5.453l6.166-12.203c0.449,0.451,0.93,0.88,1.457,1.268c1.417,1.044,2.98,1.746,4.592,2.122
		L216.211,102.253z M287.984,286.13c-9.065-11.834-16.11-25.436-21.002-40.491c17.555,9.678,28.548,27.994,28.548,48.508
		c0,0.292-0.012,0.583-0.016,0.875C292.874,292.169,290.344,289.205,287.984,286.13z M253.692,184.515
		c-2.594-4.222-6.126-7.826-10.297-10.525l38.029-61.116l11.997,7.8L253.692,184.515z M276.797,76.501
		c-1.744,0.449-3.537-0.221-4.565-1.709c-1.214-1.754-3.744-2.056-5.344-0.498c-1.246,1.214-1.329,3.201-0.318,4.616
		c2.14,2.998,5.605,4.721,9.191,4.721c0.928,0,1.863-0.115,2.786-0.354l0.146-0.038c-0.079,0.228-1.314,9.63-1.314,9.63
		l-7.397,0.017c-1.934,0.005-3.497,1.575-3.492,3.508c0.005,1.931,1.57,3.492,3.5,3.492c0.003,0,0.006,0,0.008,0l6.487-0.015
		l-0.642,5.033c-0.532,4.171-4.104,7.316-8.31,7.316h-12.134c-11.792,0-22.487-7.007-27.281-17.645
		c1.134-0.652,2.185-1.493,3.106-2.521c0.106-0.119,0.205-0.246,0.295-0.379c1.732-2.572,2.355-5.664,1.755-8.706
		c-0.601-3.043-2.353-5.666-4.932-7.387c-1.611-1.071-3.782-0.638-4.854,0.97c-1.073,1.608-0.639,3.781,0.97,4.854
		c1.019,0.68,1.711,1.716,1.948,2.918c0.222,1.124,0.021,2.266-0.566,3.241c-1.902,1.948-4.93,2.206-7.143,0.575
		c-2.156-1.589-2.843-4.477-1.647-6.837l25.374-48.962c7.352,0.314,14.664,1.488,21.749,3.483c-1.823,0.225-4.287,0.631-6.879,1.358
		c-7.354,2.064-12.173,5.763-13.934,10.692c-0.65,1.82,0.298,3.823,2.118,4.474c0.39,0.139,0.787,0.205,1.178,0.205
		c1.438,0,2.785-0.893,3.296-2.323c2.061-5.769,13.621-7.521,17.51-7.681c1.93-0.076,3.433-1.701,3.358-3.632
		c-0.014-0.363-0.097-0.704-0.21-1.029c3.052,1.098,6.05,2.344,8.975,3.75l-3.016,14.01c-0.15,0.7-0.083,1.43,0.194,2.09
		l7.102,16.936L276.797,76.501z M195.883,42.338c5.023-2.517,10.247-4.58,15.611-6.17c0,0-20.491,39.33-20.577,39.522
		c-0.697-0.826-1.51-1.562-2.434-2.179c-1.608-1.073-3.782-0.639-4.854,0.969c-1.073,1.608-0.639,3.781,0.969,4.854
		c1.02,0.681,1.712,1.718,1.949,2.92c0.222,1.124,0.021,2.266-0.567,3.239c-1.902,1.949-4.93,2.206-7.143,0.577
		c-2.157-1.59-2.843-4.478-1.633-6.866L195.883,42.338z M182.046,105.802c0.42,1.553,1.129,2.993,2.085,4.251v49.574
		c-1.686,0.081-3.291,0.197-4.821,0.334v-49.828c0.229-0.302,0.462-0.6,0.667-0.928L182.046,105.802z M172.31,160.808
		c-0.974,0.149-1.888,0.302-2.736,0.456c-0.629-0.793-1.166-1.592-1.814-2.372v-27.759c0,0.056-0.369-0.834-1.025-1.49l-7.371-7.371
		v-11.407c0.177-0.06,0.348-0.118,0.512-0.173c1.258,1.486,2.868,2.69,4.753,3.471c1.555,0.643,3.17,0.951,4.764,0.951
		c0.988,0,1.966-0.128,2.917-0.359V160.808z M153.389,126.196l7.371,7.371v17.637c-1.1-1.131-2.214-2.244-3.349-3.329
		c-2.151-2.067-4.414-4.054-6.73-5.995v-27.807c0.575-0.23,1.135-0.45,1.684-0.663v10.312
		C152.365,124.65,152.733,125.54,153.389,126.196z M143.68,136.355c-1.582-1.159-3.19-2.289-4.826-3.384
		c-3.575-2.397-7.294-4.645-11.122-6.734c4.567-3.507,10.387-6.622,15.948-9.17V136.355z M132.832,137.395
		c-1.919,7.072-2.897,14.396-2.897,21.813c0,19.099,6.623,37.76,18.65,52.548c11.328,13.931,26.975,23.887,44.265,28.254
		c0.664,5.176,1.397,10.563,2.191,16.077c0.097,0.675,0.216,1.346,0.354,2.011c-47.459-8.508-82.61-50.089-82.61-98.89
		c0-10.384,1.578-20.573,4.677-30.35C122.793,131.391,127.942,134.249,132.832,137.395z M119.01,210.835
		c-7.499-7.442-16.024-13.938-25.419-19.244v-71.448c4.124,1.047,10.237,2.871,17.449,5.857
		c-3.475,10.688-5.254,21.839-5.254,33.208C105.785,177.814,110.562,195.441,119.01,210.835z M147.568,292.169
		c0.045,1.21,0.067,2.48,0.067,3.885l-15.398-10.009c-1.701-26.682-16.005-50.764-38.646-65.075v-21.26
		C125.761,219.421,146.287,254.309,147.568,292.169z M124.732,281.166l-31.141-20.242v-31.516
		C110.712,241.683,121.94,260.352,124.732,281.166z M110.875,326.2l-10.12,4.337c-0.568-0.365-1.046-0.833-1.437-1.365l11.404-4.275
		L110.875,326.2z M93.591,364.377c1.845,3.576,4.377,7.36,6.881,10.753l-6.881,6.881V364.377z M93.591,346.845v-13.625
		c0.947,1.317,2.149,2.457,3.564,3.331v3.838c0,0.85,0.313,1.625,0.821,2.235C96.252,343.73,94.759,345.164,93.591,346.845z
		 M98.666,319.695l11.047-3.398l0.169,1.44l-11.376,4.265L98.666,319.695z M108.708,307.731l0.175,1.496l-9.657,2.97
		c0.3-1.594,1.287-2.973,2.729-3.767l4.239-2.333L108.708,307.731z M98.58,302.299c-2.17,1.195-3.872,2.98-4.989,5.092v-9.487
		l5.948,3.866L98.58,302.299z M93.591,388.604l6.881,6.882c-2.504,3.392-5.036,7.176-6.881,10.751V388.604z M106.322,399.351
		c5.857,7.896,8.5,13.466,8.5,15.602c0,4.687-3.813,8.5-8.5,8.5s-8.5-3.813-8.5-8.5C97.822,412.817,100.466,407.247,106.322,399.351
		z M100.194,385.308l6.128-6.128l6.128,6.128l-6.128,6.129L100.194,385.308z M97.822,355.663c0-4.687,3.813-8.5,8.5-8.5
		s8.5,3.813,8.5,8.5c0,2.134-2.643,7.705-8.5,15.602C100.465,363.367,97.822,357.797,97.822,355.663z M109.597,337.583l-5.441-0.43
		v-0.458l11.879-5.091c1.424-0.61,2.278-2.085,2.097-3.625l-1.793-15.289l14.543,9.454l-3.952,7.882
		c-1.139,2.272-3.089,3.985-5.49,4.823l-5.48,1.912C113.905,337.478,111.765,337.759,109.597,337.583z M93.591,289.556v-5.652
		l62.983,40.931l-2.509,4.031L93.591,289.556z M199.664,268.841c2.598,4.224,6.13,7.829,10.295,10.526l-38.03,61.111l-11.994-7.797
		L199.664,268.841z M176.56,376.855c1.743-0.449,3.536,0.22,4.564,1.707c0.679,0.982,1.771,1.51,2.882,1.51
		c0.687,0,1.38-0.201,1.988-0.621c1.59-1.1,1.987-3.279,0.888-4.869c-2.675-3.869-7.526-5.681-12.072-4.504l-0.145,0.032
		c0.079-0.227,1.313-9.625,1.313-9.625l7.397-0.017c1.933-0.005,3.496-1.575,3.492-3.508c-0.004-1.931-1.571-3.492-3.5-3.492
		c-0.002,0-0.005,0-0.008,0l-6.487,0.015l0.642-5.033c0.533-4.171,4.105-7.316,8.31-7.316h12.134
		c11.796,0,22.495,7.012,27.286,17.657c-1.134,0.651-2.19,1.481-3.11,2.509c-0.107,0.119-0.206,0.246-0.295,0.378
		c-1.733,2.573-2.356,5.665-1.756,8.708c0.601,3.042,2.352,5.665,4.932,7.386c1.608,1.072,3.781,0.637,4.854-0.971
		c1.072-1.607,0.638-3.781-0.971-4.854c-1.019-0.68-1.711-1.716-1.948-2.917c-0.222-1.125-0.021-2.267,0.567-3.241
		c1.903-1.949,4.932-2.206,7.143-0.576c2.156,1.589,2.843,4.477,1.647,6.838l-25.375,48.962c-7.354-0.313-14.667-1.488-21.754-3.484
		c1.824-0.225,4.29-0.631,6.884-1.359c7.354-2.063,12.172-5.762,13.933-10.691c0.65-1.821-0.298-3.823-2.119-4.474
		c-1.82-0.648-3.823,0.298-4.473,2.118c-2.061,5.769-13.621,7.521-17.509,7.681c-1.93,0.076-3.434,1.701-3.359,3.632
		c0.014,0.364,0.098,0.706,0.214,1.032c-3.053-1.098-6.053-2.345-8.978-3.751l3.017-14.012c0.151-0.7,0.083-1.43-0.194-2.09
		l-7.102-16.936L176.56,376.855z M257.474,411.016c-5.026,2.519-10.25,4.583-15.612,6.173c0,0,20.49-39.331,20.576-39.524
		c0.697,0.826,1.51,1.563,2.435,2.18c1.607,1.071,3.78,0.639,4.854-0.971c1.072-1.608,0.638-3.781-0.971-4.854
		c-1.019-0.68-1.711-1.716-1.948-2.918c-0.222-1.124-0.021-2.267,0.566-3.241c1.9-1.947,4.928-2.208,7.144-0.575
		c2.156,1.589,2.842,4.476,1.632,6.865L257.474,411.016z M271.311,347.554c-0.42-1.554-1.13-2.994-2.085-4.252v-49.573
		c1.684-0.08,3.293-0.194,4.82-0.331v49.79C273.812,343.495,271.311,347.554,271.311,347.554z M281.046,292.551
		c0.978-0.15,1.896-0.304,2.744-0.458c0.63,0.794,1.157,1.592,1.806,2.372v27.68c0,0.022,0.369,0.912,1.025,1.568l7.371,7.371
		v11.407c-0.177,0.06-0.349,0.118-0.512,0.173c-1.258-1.486-2.868-2.69-4.753-3.471c-2.519-1.041-5.197-1.198-7.682-0.596V292.551z
		 M299.967,327.159l-7.371-7.371v-17.651c1.049,1.08,7.767,7.397,10.08,9.334v27.811c-0.575,0.23-1.135,0.45-1.684,0.663v-10.311
		C300.992,328.705,300.623,327.815,299.967,327.159z M309.676,316.999c1.581,1.16,3.188,2.291,4.82,3.386
		c3.576,2.398,7.296,4.646,11.125,6.735c-4.566,3.506-10.385,6.62-15.945,9.168V316.999z M320.522,315.964
		c1.919-7.072,2.898-14.397,2.898-21.817c0-19.099-6.623-37.76-18.649-52.548c-11.33-13.932-26.978-23.889-44.27-28.255
		c-0.665-5.176-1.397-10.563-2.192-16.076c-0.097-0.675-0.216-1.346-0.354-2.011c47.461,8.505,82.614,50.088,82.614,98.89
		c0,10.386-1.578,20.576-4.677,30.353C330.563,321.968,325.413,319.11,320.522,315.964z M334.348,242.524
		c7.499,7.441,16.023,13.935,25.418,19.239v71.458c-4.313-1.094-10.361-2.924-17.451-5.864c3.475-10.688,5.255-21.84,5.255-33.21
		C347.57,275.543,342.794,257.917,334.348,242.524z M305.783,161.185c-0.045-1.194-0.067-2.465-0.067-3.885l15.398,10.009
		c1.701,26.684,16.007,50.771,38.652,65.086v21.249C327.592,233.934,307.064,199.048,305.783,161.185z M328.619,172.188
		l31.146,20.246v31.523C342.641,211.676,331.411,193.003,328.619,172.188z M296.78,128.523l2.51-4.034l60.475,39.317v5.652
		L296.78,128.523z M359.765,120.137c-0.947-1.318-2.15-2.457-3.565-3.332v-3.838c0-0.85-0.313-1.625-0.821-2.234
		c1.725-1.108,3.218-2.542,4.387-4.223V120.137z M351.398,144.925l-4.242,2.336l-2.508-1.63l-0.176-1.502l9.657-2.97
		C353.829,142.75,352.842,144.13,351.398,144.925z M342.48,127.155l10.121-4.337c0.568,0.365,1.046,0.833,1.437,1.365l-11.405,4.275
		L342.48,127.155z M354.691,133.66l-11.048,3.398l-0.169-1.44l11.377-4.265L354.691,133.66z M359.765,88.979
		c-1.845-3.576-4.378-7.36-6.882-10.753l6.882-6.883V88.979z M359.765,64.752l-6.883-6.882c2.505-3.393,5.038-7.179,6.883-10.755
		V64.752z M347.034,54.005c-5.857-7.897-8.5-13.468-8.5-15.602c0-4.687,3.813-8.5,8.5-8.5s8.5,3.813,8.5,8.5
		C355.534,40.536,352.89,46.106,347.034,54.005z M353.162,68.048l-6.128,6.129l-6.129-6.129l6.129-6.128L353.162,68.048z
		 M355.534,97.692c0,4.687-3.813,8.5-8.5,8.5s-8.5-3.813-8.5-8.5c0-2.135,2.644-7.705,8.5-15.602
		C352.89,89.987,355.534,95.559,355.534,97.692z M343.759,115.772l5.441,0.43v0.458l-11.879,5.091
		c-1.425,0.61-2.278,2.085-2.098,3.625l1.794,15.293l-14.544-9.456l3.952-7.883c1.14-2.273,3.09-3.986,5.49-4.824l5.481-1.912
		C339.45,115.878,341.588,115.597,343.759,115.772z M353.811,151.587l0.964-0.531c2.171-1.196,3.873-2.981,4.99-5.094v9.495
		L353.811,151.587z M359.765,29.585c-2.802-4.032-7.46-6.682-12.731-6.682c-8.547,0-15.5,6.953-15.5,15.5
		c0,5.141,4.889,13.017,9.65,19.467l-7.703,7.703c-1.367,1.366-1.367,3.582,0,4.949l7.703,7.704
		c-4.762,6.449-9.65,14.323-9.65,19.466c0,4.693,2.104,8.896,5.409,11.74c-0.621,0.159-1.239,0.338-1.85,0.552l-5.482,1.912
		c-4.128,1.44-7.481,4.386-9.442,8.296l-3.6,7.181l-33.738-21.935l2.491-19.513l5.924-6.517c0.915-1.007,1.164-2.453,0.638-3.708
		l-8.24-19.652l3.209-14.904L310.853,7h48.912V29.585z M168.707,7l20.564,32.899l-18.31,36.141
		c-2.762,5.451-1.196,12.039,3.725,15.666c1.91,1.406,4.084,2.191,6.286,2.39l-6.953,11.436c-1.422,2.272-4.248,3.178-6.714,2.162
		c-2.053-0.851-3.379-2.835-3.379-5.057c0-0.471,0.057-0.927,0.169-1.359c0.781-1.489,2.347-2.44,4.051-2.44
		c0.668,0,1.322,0.147,1.944,0.439c1.751,0.822,3.834,0.067,4.655-1.683s0.067-3.834-1.683-4.655
		c-1.559-0.73-3.213-1.102-4.917-1.102c-4.503,0-8.627,2.636-10.508,6.714c-0.064,0.14-0.119,0.282-0.165,0.429
		c-0.363,1.17-0.547,2.4-0.547,3.657c0,0.546,0.042,1.085,0.111,1.616c-7.433,2.509-25.593,9.268-36.087,18.514
		c-1.374-0.659-2.755-1.305-4.151-1.922c-9.992-4.409-18.394-6.772-23.208-7.911V7H168.707z M93.591,423.771
		c2.802,4.032,7.46,6.682,12.731,6.682c8.547,0,15.5-6.953,15.5-15.5c0-5.144-4.889-13.018-9.65-19.466l7.704-7.704
		c1.367-1.366,1.367-3.583,0-4.949l-7.703-7.703c4.761-6.45,9.65-14.325,9.65-19.467c0-4.69-2.102-8.891-5.403-11.735
		c0.62-0.159,1.236-0.344,1.846-0.557l5.481-1.912c4.129-1.44,7.483-4.387,9.442-8.296l3.6-7.18l33.739,21.931l-2.491,19.515
		l-5.924,6.517c-0.915,1.007-1.164,2.453-0.638,3.708l8.241,19.652l-3.206,14.894l-24.001,34.156H93.591V423.771z M284.654,446.356
		l-20.571-32.896l18.312-36.145c2.762-5.452,1.196-12.04-3.724-15.664c-1.909-1.407-4.085-2.192-6.287-2.391l6.955-11.437
		c1.421-2.272,4.246-3.178,6.713-2.162c2.053,0.851,3.379,2.835,3.379,5.057c0,0.471-0.057,0.927-0.169,1.359
		c-0.781,1.49-2.347,2.44-4.051,2.44c-0.669,0-1.324-0.147-1.947-0.439c-1.75-0.82-3.834-0.065-4.653,1.687
		c-0.819,1.751-0.064,3.834,1.687,4.653c1.56,0.729,3.213,1.1,4.914,1.1c4.502,0,8.627-2.636,10.508-6.714
		c0.064-0.14,0.12-0.283,0.166-0.431c0.362-1.17,0.546-2.4,0.546-3.655c0-0.546-0.042-1.084-0.111-1.616
		c7.431-2.508,25.59-9.267,36.084-18.513c1.373,0.659,2.754,1.304,4.149,1.92c9.801,4.327,18.036,6.693,23.213,7.917v105.93H284.654
		z"/>
	<path d="M251.733,90.803c-0.461-0.242-0.529-0.569-0.538-0.828c-0.036-1.105,1.152-3.147,4.619-5.267
		c1.649-1.008,2.169-3.162,1.161-4.812c-1.007-1.65-3.163-2.17-4.812-1.161c-7.113,4.347-8.044,9.05-7.965,11.467
		c0.094,2.899,1.694,5.44,4.279,6.798c1.308,0.687,2.759,1.025,4.265,1.025c2.138,0,4.383-0.684,6.472-2.026
		c8.003-5.146,14.317-4.805,14.485-4.789c1.921,0.15,3.601-1.257,3.774-3.171c0.176-1.926-1.243-3.628-3.168-3.803
		c-0.353-0.036-8.651-0.699-18.877,5.874C253.766,91.178,252.398,91.151,251.733,90.803z"/>
	<path d="M269.919,44.515l-21.333,9.333c-1.399,0.613-2.24,2.063-2.076,3.583c0.164,1.519,1.295,2.756,2.793,3.056l20,4
		c0.231,0.047,0.463,0.069,0.69,0.069c1.634,0,3.096-1.15,3.428-2.814c0.38-1.896-0.85-3.739-2.745-4.118l-0.559-0.112l0.868-5.821
		l1.741-0.762c1.771-0.775,2.578-2.839,1.804-4.61C273.755,44.549,271.694,43.742,269.919,44.515z M264.227,56.333l-2.646-0.529
		l2.915-1.275L264.227,56.333z"/>
	<path d="M224.156,144.055h-3.333v-3.333c0-1.933-1.567-3.5-3.5-3.5s-3.5,1.567-3.5,3.5v3.333h-3.333c-1.933,0-3.5,1.567-3.5,3.5
		s1.567,3.5,3.5,3.5h3.333v3.333c0,1.933,1.567,3.5,3.5,3.5s3.5-1.567,3.5-3.5v-3.333h3.333c1.933,0,3.5-1.567,3.5-3.5
		S226.089,144.055,224.156,144.055z"/>
	<circle cx="201.322" cy="123.388" r="3.167"/>
	<circle cx="215.903" cy="123.388" r="3.167"/>
	<circle cx="230.484" cy="123.388" r="3.167"/>
	<circle cx="245.065" cy="123.388" r="3.167"/>
	<circle cx="259.646" cy="123.388" r="3.167"/>
	<path d="M227.322,213.555h15.667c1.933,0,3.5-1.567,3.5-3.5v-16.333c0-6.25-5.084-11.334-11.334-11.334
		c-6.249,0-11.333,5.084-11.333,11.334v16.333C223.822,211.987,225.389,213.555,227.322,213.555z M230.822,193.722
		c0-2.39,1.943-4.334,4.333-4.334s4.334,1.944,4.334,4.334v12.833h-8.667V193.722z"/>
	<path d="M219.822,210.055v-28.833c0-6.25-5.084-11.334-11.333-11.334c-6.25,0-11.333,5.084-11.333,11.334v28.833
		c0,1.933,1.567,3.5,3.5,3.5h15.667C218.255,213.555,219.822,211.987,219.822,210.055z M212.822,206.555h-8.667v-25.333
		c0-2.39,1.944-4.334,4.333-4.334c2.389,0,4.333,1.944,4.333,4.334V206.555z"/>
	<path d="M201.623,362.553c0.461,0.242,0.529,0.569,0.538,0.828c0.036,1.105-1.152,3.148-4.619,5.267
		c-1.649,1.008-2.169,3.162-1.161,4.812c0.66,1.08,1.811,1.676,2.99,1.676c0.622-0.001,1.252-0.166,1.822-0.515
		c7.113-4.347,8.043-9.05,7.965-11.467c-0.094-2.899-1.694-5.44-4.28-6.798c-3.162-1.661-7.176-1.287-10.735,1.001
		c-8.004,5.146-14.317,4.803-14.485,4.789c-1.91-0.144-3.6,1.256-3.775,3.171c-0.175,1.926,1.244,3.628,3.169,3.803
		c0.348,0.034,8.648,0.7,18.876-5.874C199.59,362.177,200.958,362.204,201.623,362.553z"/>
	<path d="M182.036,409.135c0.468,0,0.944-0.095,1.401-0.294l21.333-9.333c1.4-0.613,2.241-2.063,2.077-3.583
		c-0.164-1.519-1.295-2.756-2.793-3.056l-20-4c-1.897-0.381-3.739,0.85-4.119,2.745c-0.379,1.896,0.85,3.739,2.746,4.118
		l0.558,0.112l-0.868,5.822l-1.74,0.761c-1.771,0.775-2.579,2.839-1.804,4.61C179.403,408.351,180.687,409.135,182.036,409.135z
		 M189.129,397.022l2.646,0.529l-2.915,1.275L189.129,397.022z"/>
	<path d="M229.2,309.301h3.334v3.333c0,1.933,1.567,3.5,3.5,3.5s3.5-1.567,3.5-3.5v-3.333h3.333c1.933,0,3.5-1.567,3.5-3.5
		s-1.567-3.5-3.5-3.5h-3.333v-3.333c0-1.933-1.567-3.5-3.5-3.5s-3.5,1.567-3.5,3.5v3.333H229.2c-1.933,0-3.5,1.567-3.5,3.5
		S227.267,309.301,229.2,309.301z"/>
	<circle cx="252.034" cy="329.968" r="3.167"/>
	<circle cx="237.453" cy="329.968" r="3.167"/>
	<circle cx="222.872" cy="329.968" r="3.167"/>
	<circle cx="208.291" cy="329.968" r="3.167"/>
	<circle cx="193.71" cy="329.968" r="3.167"/>
	<path d="M226.034,239.801h-15.667c-1.933,0-3.5,1.567-3.5,3.5v13.254c0,6.249,5.084,11.333,11.333,11.333
		s11.333-5.084,11.333-11.333v-13.254C229.534,241.368,227.967,239.801,226.034,239.801z M222.534,256.555
		c0,2.39-1.944,4.333-4.333,4.333s-4.333-1.943-4.333-4.333v-9.754h8.667V256.555z"/>
	<path d="M252.7,239.801h-15.666c-1.933,0-3.5,1.567-3.5,3.5v28.833c0,6.25,5.084,11.334,11.333,11.334s11.333-5.084,11.333-11.334
		v-28.833C256.2,241.368,254.633,239.801,252.7,239.801z M249.2,272.134c0,2.39-1.943,4.334-4.333,4.334s-4.333-1.944-4.333-4.334
		v-25.333h8.666V272.134z"/>
	<path d="M208.178,233.668c0,1.933,1.567,3.5,3.5,3.5h29.667c1.933,0,3.5-1.567,3.5-3.5v-3.33h4.167c1.933,0,3.5-1.567,3.5-3.5
		s-1.567-3.5-3.5-3.5h-4.167v-3.337c0-1.933-1.567-3.5-3.5-3.5h-29.667c-1.933,0-3.5,1.567-3.5,3.5v3.337h-3.497
		c-1.933,0-3.5,1.567-3.5,3.5s1.567,3.5,3.5,3.5h3.497V233.668z M215.178,223.501h22.667v6.667h-22.667V223.501z"/>
</g>
<g>
</g>
<g>
</g>
<g>
</g>
<g>
</g>
<g>
</g>
<g>
</g>
<g>
</g>
<g>
</g>
<g>
</g>
<g>
</g>
<g>
</g>
<g>
</g>
<g>
</g>
<g>
</g>
<g>
</g>
</svg>
