<?xml version="1.0" encoding="iso-8859-1"?>
<!-- Generator: Adobe Illustrator 18.0.0, SVG Export Plug-In . SVG Version: 6.00 Build 0)  -->
<!DOCTYPE svg PUBLIC "-//W3C//DTD SVG 1.1//EN" "http://www.w3.org/Graphics/SVG/1.1/DTD/svg11.dtd">
<svg version="1.1" id="Capa_1" xmlns="http://www.w3.org/2000/svg" xmlns:xlink="http://www.w3.org/1999/xlink" x="0px" y="0px"
	 viewBox="0 0 453.356 453.356" style="enable-background:new 0 0 453.356 453.356;" xml:space="preserve">
<g>
	<path d="M219.547,406.651l-5.232-3.14c-3.104-1.862-6.657-2.847-10.276-2.847c-3.083,0-6.172,0.729-8.931,2.108l-7.496,3.748
		c-1.077,0.539-1.801,1.593-1.918,2.791c-0.031,0.316-0.015,2.06,0.184,2.62c6.274,17.749,28.056,17.699,28.994,17.695
		c1.93-0.022,3.473-1.603,3.456-3.532c-0.017-1.921-1.584-3.468-3.503-3.468c-0.009,0,0.002,0-0.031,0
		c-0.26,0-6.541-0.048-12.53-2.833c0.399,0.024,0.799,0.05,1.2,0.05c4.396,0,8.732-1.48,12.211-4.168l4.213-3.256
		c0.915-0.707,1.422-1.82,1.354-2.975S220.538,407.246,219.547,406.651z M200.644,412.532c-1.767-0.39-3.432-1.142-4.915-2.244
		l2.509-1.254c0.768-0.384,1.579-0.661,2.406-0.88V412.532z M207.644,412.159v-3.959c1.073,0.303,2.108,0.738,3.068,1.314
		l0.838,0.503C211.551,410.016,208.982,411.703,207.644,412.159z" fill="red" />
	<path d="M243.094,74.001c-11.581-2.631-21.045,0.707-21.442,0.852c-1.814,0.655-2.751,2.651-2.102,4.468
		c0.511,1.431,1.861,2.321,3.3,2.321c0.388,0,0.783-0.064,1.169-0.201c0.079-0.028,8.021-2.771,17.525-0.613
		c1.881,0.433,3.76-0.752,4.188-2.638C246.16,76.305,244.979,74.43,243.094,74.001z" fill="red" />
	<path d="M235.339,82.68h-6.168c-1.933,0-3.5,1.567-3.5,3.5s1.567,3.5,3.5,3.5h6.168c1.933,0,3.5-1.567,3.5-3.5
		S237.272,82.68,235.339,82.68z" fill="red" />
	<path d="M116.926,166.133h5.509v5.509c0,1.933,1.567,3.5,3.5,3.5s3.5-1.567,3.5-3.5v-5.509h5.509c1.933,0,3.5-1.567,3.5-3.5
		s-1.567-3.5-3.5-3.5h-5.509v-5.509c0-1.933-1.567-3.5-3.5-3.5s-3.5,1.567-3.5,3.5v5.509h-5.509c-1.933,0-3.5,1.567-3.5,3.5
		S114.992,166.133,116.926,166.133z" fill="red" />
	<circle cx="124.717" cy="294.112" r="4.139" fill="red" />
	<circle cx="138.109" cy="268.303" r="4.139" fill="red" />
	<circle cx="143.465" cy="239.085" r="4.139" fill="red" />
	<circle cx="145.9" cy="206.459" r="4.139" fill="red" />
	<circle cx="160.996" cy="175.78" r="4.139" fill="red" />
	<path d="M210.16,378.843c3.253,0.739,6.34,1.007,9.105,1.007c7.078,0,12.052-1.755,12.337-1.858
		c1.814-0.655,2.751-2.651,2.102-4.468s-2.649-2.766-4.469-2.12c-0.079,0.028-8.021,2.771-17.525,0.613
		c-1.88-0.43-3.76,0.752-4.188,2.638C207.094,376.539,208.275,378.414,210.16,378.843z" fill="red" />
	<path d="M217.915,370.164h6.168c1.933,0,3.5-1.567,3.5-3.5s-1.567-3.5-3.5-3.5h-6.168c-1.933,0-3.5,1.567-3.5,3.5
		S215.982,370.164,217.915,370.164z" fill="red" />
	<path d="M336.328,286.711h-5.509v-5.509c0-1.933-1.567-3.5-3.5-3.5s-3.5,1.567-3.5,3.5v5.509h-5.509c-1.933,0-3.5,1.567-3.5,3.5
		s1.567,3.5,3.5,3.5h5.509v5.509c0,1.933,1.567,3.5,3.5,3.5s3.5-1.567,3.5-3.5v-5.509h5.509c1.933,0,3.5-1.567,3.5-3.5
		S338.261,286.711,336.328,286.711z" fill="red" />
	<circle cx="328.537" cy="158.731" r="4.139" fill="red" />
	<circle cx="315.145" cy="184.54" r="4.139" fill="red" />
	<circle cx="309.789" cy="213.758" r="4.139" fill="red" />
	<circle cx="307.354" cy="246.385" r="4.139" fill="red" />
	<circle cx="292.258" cy="277.063" r="4.139" fill="red" />
	<path d="M234.187,46.003l5.232,3.14c3.104,1.862,6.657,2.847,10.276,2.847c3.083,0,6.172-0.729,8.931-2.108l7.496-3.748
		c1.077-0.539,1.801-1.593,1.918-2.791c0.031-0.316,0.015-2.06-0.184-2.62c-6.274-17.749-28.056-17.699-28.994-17.695
		c-1.93,0.022-3.473,1.603-3.456,3.532c0.017,1.921,1.584,3.468,3.503,3.468c0.009,0-0.002,0,0.031,0
		c0.26,0,6.541,0.048,12.53,2.833c-0.399-0.024-0.799-0.05-1.2-0.05c-4.396,0-8.732,1.48-12.211,4.168l-4.213,3.256
		c-0.915,0.707-1.422,1.82-1.354,2.975S233.196,45.408,234.187,46.003z M253.09,40.122c1.767,0.39,3.432,1.142,4.915,2.244
		l-2.509,1.254c-0.768,0.384-1.579,0.661-2.406,0.88V40.122z M246.09,40.495v3.959c-1.073-0.303-2.108-0.738-3.068-1.314
		l-0.838-0.503C242.183,42.638,244.752,40.951,246.09,40.495z" fill="red" />
	<path d="M363.265,0H90.091c-1.933,0-3.5,1.567-3.5,3.5v446.356c0,1.933,1.567,3.5,3.5,3.5h273.174c1.933,0,3.5-1.567,3.5-3.5V3.5
		C366.765,1.567,365.198,0,363.265,0z M328.21,7l-0.226,0.981c-5.256,22.835-3.042,46.956,6.201,68.433l-20.974,3.898l-3.823-7.209
		h9.291c1.933,0,3.5-1.567,3.5-3.5s-1.567-3.5-3.5-3.5h-13.003l-3.537-6.669h2.54c1.933,0,3.5-1.567,3.5-3.5s-1.567-3.5-3.5-3.5
		h-6.253l-3.547-6.669h20c1.933,0,3.5-1.567,3.5-3.5s-1.567-3.5-3.5-3.5h-23.711l-3.536-6.669h5.047c1.933,0,3.5-1.567,3.5-3.5
		s-1.567-3.5-3.5-3.5h-8.759l-3.536-6.669h27.795c1.933,0,3.5-1.567,3.5-3.5s-1.567-3.5-3.5-3.5h-31.507L274.324,7H328.21z M266.4,7
		l62.196,117.263l-12.137,3.497L260.287,7H266.4z M186.549,347.988c-12.217,3.239-21.425,8.259-26.164,11.213l-6.001-12.902
		c25.538-10.899,50.709-14.461,74.873-10.538c17.343,2.814,31.085,8.984,40.681,14.623c-5.527,2.512-11.008,4.823-16.385,6.93
		C227.378,341.919,202.736,343.697,186.549,347.988z M244.902,360.555c-2.583,0.913-4.662,1.601-6.159,2.078
		c-1.432-2.631-3.003-4.837-4.709-6.617C237.606,357.211,241.235,358.71,244.902,360.555z M182.199,368.986
		c-3.362-3.394-7.528-5.864-12.084-7.197c8.304-4.22,21.726-9.426,37.836-9.751C195.511,355.366,187.004,363.235,182.199,368.986z
		 M183.345,388.741c0,4.272-1.315,8.417-3.691,11.896l-15.285-32.87c6.032,0.613,11.567,3.801,15.1,8.807
		C182.005,380.155,183.345,384.362,183.345,388.741z M230.377,328.851c-25.559-4.147-52.101-0.397-78.946,11.1l-8.045-17.295
		c49.058-21.26,88.772-15.875,113.647-7.446c19.983,6.771,33.821,16.497,40.009,21.418c-6.431,3.603-12.972,7.017-19.532,10.192
		C267.326,340.274,251.316,332.249,230.377,328.851z M242.417,227.667c5.593,2.356,11.48,3.618,17.516,3.79
		c-0.043,0.807-0.07,1.616-0.07,2.432c0,5.086,0.862,10.051,2.457,14.733h-5.67c-11.166,0-22.052-4.587-29.867-12.586
		c-4.577-4.685-9.943-8.339-15.945-10.859c-5.593-2.356-11.48-3.618-17.515-3.79c0.043-0.807,0.07-1.617,0.07-2.433
		c0-5.086-0.862-10.05-2.457-14.732h5.669c11.166,0,22.052,4.587,29.867,12.586C231.049,221.492,236.415,225.146,242.417,227.667z
		 M236.916,216.591V151.98c1.678,0.055,3.372,0.093,5.098,0.093c0.065,0,0.132-0.002,0.197-0.002v67.769
		C240.363,218.889,238.596,217.805,236.916,216.591z M255.658,194.873c-0.531-1.857-2.47-2.938-4.326-2.404l-2.121,0.605v-4.895
		l7.938-2.265c1.859-0.53,2.936-2.467,2.405-4.325c-0.531-1.859-2.469-2.941-4.326-2.405l-6.017,1.717v-4.894l11.833-3.375
		c1.859-0.53,2.936-2.468,2.406-4.326c-0.53-1.859-2.469-2.934-4.326-2.406l-9.913,2.828v-4.894l15.732-4.489
		c1.859-0.53,2.936-2.467,2.405-4.325c-0.531-1.859-2.468-2.94-4.326-2.405l-13.812,3.941v-4.655
		c7.197-0.329,14.763-1.157,22.677-2.632l-19.689,74.202c-1.004-0.226-2.001-0.48-2.989-0.781v-22.335l4.042-1.153
		C255.112,198.669,256.188,196.732,255.658,194.873z M282.476,233.889c0,6.132,2.406,11.922,6.669,16.23
		c-1.792,5.314-4.26,10.182-7.671,14.043c-9.194-7.314-14.612-18.421-14.612-30.273c0-17.784,12.185-33.133,29.014-37.474
		c-0.186,1.379-0.347,2.672-0.497,3.869c-0.148,1.185-0.284,2.273-0.42,3.257c-0.358,2.579-0.517,6.125-0.697,10.225
		C287.041,217.826,282.476,225.495,282.476,233.889z M293.786,222.943c-0.387,5.842-1.04,12.307-2.35,18.599
		c-1.259-2.322-1.959-4.934-1.959-7.653C289.476,229.75,291.073,225.867,293.786,222.943z M276.333,268.992
		c-11.134,9.469-21.501,14.484-26.615,16.609l-9.576-32.89c5.264,1.901,10.854,2.911,16.507,2.911l8.745,0.006
		C268.134,260.69,271.821,265.237,276.333,268.992z M239.004,293.501l-15.666-4.47v-4.895l9.846,2.809
		c0.321,0.091,0.644,0.135,0.962,0.135c1.523,0,2.925-1.003,3.364-2.541c0.53-1.858-0.547-3.796-2.406-4.326l-11.766-3.356v-4.894
		l5.95,1.698c0.321,0.092,0.644,0.136,0.962,0.136c1.523,0,2.925-1.003,3.364-2.541c0.53-1.858-0.546-3.795-2.405-4.325
		l-7.871-2.246v-4.895l2.054,0.586c0.321,0.092,0.645,0.136,0.963,0.136c1.523,0,2.924-1.003,3.364-2.54
		c0.53-1.858-0.546-3.796-2.405-4.326l-3.976-1.135v-10.061c2.557,2.39,5.362,4.482,8.348,6.259l16.48,56.604
		c-7.419-1.869-15.72-3.348-24.828-4.064v-4.938l13.745,3.922c0.321,0.092,0.644,0.136,0.962,0.136c1.523,0,2.925-1.003,3.364-2.541
		C241.939,295.968,240.863,294.031,239.004,293.501z M216.338,236.253v64.607c-1.738-0.057-3.505-0.082-5.295-0.08v-67.777
		C212.891,233.954,214.658,235.039,216.338,236.253z M197.596,257.971c0.439,1.538,1.841,2.54,3.364,2.54
		c0.318,0,0.642-0.044,0.963-0.136l2.121-0.605v4.895l-7.938,2.265c-1.859,0.53-2.936,2.467-2.405,4.325
		c0.439,1.538,1.84,2.541,3.364,2.541c0.318,0,0.642-0.044,0.962-0.136l6.017-1.717v4.894l-11.833,3.375
		c-1.859,0.53-2.936,2.468-2.406,4.326c0.438,1.538,1.84,2.541,3.364,2.541c0.318,0,0.641-0.044,0.962-0.135l9.913-2.828v4.895
		l-15.732,4.489c-1.859,0.53-2.936,2.467-2.405,4.325c0.439,1.538,1.84,2.541,3.364,2.541c0.318,0,0.642-0.044,0.962-0.136
		l13.812-3.941v4.649c-7.195,0.329-14.77,1.177-22.681,2.651l19.693-74.216c1.004,0.226,2.001,0.48,2.989,0.781v22.334l-4.042,1.154
		C198.142,254.175,197.066,256.112,197.596,257.971z M229.916,156.534l-13.744-3.922c-1.858-0.528-3.795,0.546-4.326,2.405
		c-0.53,1.858,0.546,3.795,2.405,4.325l15.665,4.47v4.895l-9.846-2.809c-1.858-0.526-3.795,0.548-4.326,2.406
		c-0.53,1.858,0.547,3.796,2.406,4.326l11.766,3.356v4.894l-5.95-1.698c-1.858-0.529-3.795,0.547-4.326,2.405
		c-0.53,1.858,0.546,3.795,2.405,4.325l7.871,2.246v4.895l-2.054-0.586c-1.856-0.531-3.795,0.546-4.326,2.404
		c-0.53,1.859,0.546,3.796,2.405,4.326l3.975,1.134v10.062c-2.557-2.39-5.361-4.482-8.348-6.259l-16.481-56.606
		c7.418,1.87,15.722,3.343,24.828,4.06V156.534z M213.112,200.133c-5.264-1.901-10.854-2.911-16.507-2.911l-8.929-0.345
		c-2.721-4.926-6.345-9.354-10.756-13.025c11.134-9.47,21.5-14.485,26.615-16.61L213.112,200.133z M170.778,218.954
		c0-6.131-2.406-11.921-6.669-16.229c1.791-5.314,4.26-10.182,7.672-14.043c9.194,7.314,14.612,18.421,14.612,30.272
		c0,17.785-12.185,33.134-29.014,37.474c0.186-1.378,0.347-2.67,0.497-3.866c0.148-1.185,0.284-2.274,0.421-3.259
		c0.358-2.58,0.517-6.125,0.697-10.226C166.213,235.017,170.778,227.349,170.778,218.954z M159.469,229.9
		c0.387-5.842,1.04-12.307,2.35-18.598c1.259,2.322,1.959,4.934,1.959,7.653C163.778,223.093,162.181,226.976,159.469,229.9z
		 M197.381,162.289c-6.767,3.155-17.344,9.09-28.339,19.186c-15.14,13.899-16.325,40.943-17.034,57.102
		c-0.176,4.009-0.327,7.471-0.646,9.764c-0.141,1.012-0.281,2.134-0.433,3.354c-1.449,11.6-4.108,32.855-20.169,51.627
		l-19.859-9.032c19.118-20.846,22.074-44.44,23.698-57.451c0.148-1.189,0.285-2.283,0.422-3.27c0.365-2.625,0.524-6.247,0.708-10.44
		c0.663-15.071,1.771-40.295,14.778-52.229c5.897-5.417,13.882-10.801,23.705-16.022
		C181.209,158.034,188.967,160.685,197.381,162.289z M142.328,124.385c2.466-1.529,4.927-3.011,7.367-4.445
		c5.207,4.446,20.373,16.161,43.946,24.211c1.135,0.388,2.31,0.766,3.503,1.14l3.021,10.375
		C171.296,150.621,149.792,131.759,142.328,124.385z M156.213,263.857c18.245-3.443,32.428-17.696,36.187-35.492
		c0.557,0.006,1.115,0.016,1.669,0.044l-20.375,76.789c-7.481,1.744-15.245,4.068-23.265,7.068l-13.06-5.94
		C149.367,291.628,154.004,275.92,156.213,263.857z M259.612,308.693c-1.135-0.387-2.31-0.766-3.503-1.14l-3.021-10.375
		c28.869,5.044,50.374,23.906,57.837,31.281c-2.464,1.527-4.925,3.01-7.368,4.444C298.35,328.458,283.184,316.742,259.612,308.693z
		 M255.872,290.554c6.768-3.155,17.344-9.089,28.34-19.185c15.139-13.899,16.325-40.942,17.034-57.1
		c0.176-4.01,0.328-7.472,0.646-9.766c0.141-1.012,0.281-2.133,0.433-3.353c1.449-11.599,4.107-32.855,20.168-51.627l19.86,9.03
		c-19.118,20.846-22.074,44.441-23.698,57.451c-0.148,1.19-0.285,2.284-0.422,3.271c-0.365,2.625-0.524,6.247-0.708,10.44
		c-0.663,15.071-1.771,40.296-14.778,52.229c-5.895,5.415-13.879,10.798-23.705,16.022
		C272.045,294.809,264.287,292.158,255.872,290.554z M297.041,188.986c-18.245,3.444-32.429,17.697-36.187,35.494
		c-0.558-0.006-1.115-0.016-1.67-0.044l20.376-76.792c7.479-1.743,15.238-4.067,23.256-7.065l13.068,5.942
		C303.886,161.217,299.25,176.923,297.041,188.986z M196.221,137.634c-19.983-6.771-33.821-16.498-40.009-21.418
		c6.433-3.603,12.974-7.018,19.532-10.192c10.184,6.547,26.194,14.572,47.133,17.97c6.742,1.094,13.552,1.64,20.419,1.64
		c19.165,0,38.767-4.262,58.533-12.728l8.039,17.282C260.81,151.448,221.096,146.063,196.221,137.634z M243.895,107.865
		c8.644,0,16.393-1.309,22.811-3.01c12.217-3.239,21.425-8.259,26.164-11.213l6.001,12.902
		c-25.539,10.898-50.711,14.457-74.873,10.538c-17.343-2.814-31.084-8.984-40.681-14.623c5.531-2.513,11.014-4.825,16.392-6.932
		C215.503,104.815,230.738,107.865,243.895,107.865z M208.352,92.289c2.584-0.914,4.663-1.601,6.16-2.078
		c1.431,2.631,3.003,4.838,4.709,6.617C215.648,95.633,212.019,94.134,208.352,92.289z M271.056,83.858
		c3.362,3.394,7.528,5.864,12.084,7.197c-8.309,4.222-21.743,9.432-37.867,9.751C257.729,97.482,266.247,89.612,271.056,83.858z
		 M269.908,64.103c0-4.272,1.315-8.417,3.691-11.896l15.285,32.87c-6.032-0.613-11.566-3.801-15.1-8.807
		C271.249,72.688,269.908,68.481,269.908,64.103z M252.566,7l4.823,10.366c-5.984-0.47-10.93-4.724-12.441-10.366H252.566z
		 M230.975,7h6.819c1.725,9.871,10.357,17.422,20.694,17.422c0.708,0,1.365-0.214,1.916-0.575l9.9,21.276
		c-4.724,5.16-7.396,11.94-7.396,18.98c0,4.971,1.307,9.771,3.778,14.032c-5.197,6.647-16.939,18.094-35.722,17.211
		c-4.416-0.209-8.276-3.845-11.477-10.81c-3.456-7.494-6-18.467-7.581-32.637c2.452-0.227,4.849-0.902,7.081-2.022l1.523-0.76
		c-0.623,4.528-1.103,8.415-1.428,11.197c-0.479,4.101,2.331,7.87,6.397,8.581l6.706,1.174c0.525,0.092,1.049,0.137,1.568,0.137
		c2.546,0,4.968-1.083,6.69-3.048c2.073-2.364,2.748-5.567,1.805-8.568c-0.58-1.843-2.544-2.869-4.388-2.289
		c-1.844,0.579-2.869,2.544-2.29,4.389c0.294,0.936-0.175,1.608-0.391,1.854c-0.215,0.247-0.818,0.796-1.788,0.631l-6.706-1.174
		c-0.414-0.073-0.7-0.457-0.651-0.874c0.468-4.015,1.256-10.327,2.349-17.602c1.277-8.497-1.125-14.181-3.366-17.453
		c-1.092-1.596-3.272-2.003-4.865-0.91c-1.595,1.092-2.003,3.27-0.911,4.865c0.917,1.339,1.865,3.31,2.279,6.013
		c-3.308-2.154-7.154-3.265-11.068-3.226c-0.131-2.933-0.219-5.752-0.276-8.399c0.034,0.001,0.065,0.01,0.099,0.01
		C220.642,24.426,229.258,16.881,230.975,7z M215.178,43.926v-3.282c1.127,0.422,2.206,0.987,3.192,1.719l-2.515,1.254
		C215.633,43.728,215.406,43.827,215.178,43.926z M210.198,7h13.622c-1.597,5.992-7.055,10.426-13.544,10.426
		c-0.064,0-0.124,0.015-0.187,0.019C210.073,12.814,210.141,9.157,210.198,7z M211.596,83.792c-2.85,0.922-7.222,2.417-12.847,4.584
		c-1.176,0.453-2.367,0.938-3.554,1.412c2.439-8.665,6.363-16.864,11.607-24.211C208.084,72.67,209.684,78.76,211.596,83.792z
		 M204.534,48.694c0.243,2.546,0.519,4.994,0.82,7.365c-9.021,10.69-15.275,23.43-18.188,37.048
		c-4.198,1.804-12.906,5.851-13.021,5.906c2.78-22.33,13.336-43.139,29.723-58.627C204.06,43.278,204.282,46.064,204.534,48.694z
		 M93.591,7h109.605c-0.107,4.214-0.244,13.447,0.194,24.435c-21.193,17.897-34.451,43.667-36.653,71.235
		c-6.185,3.132-12.335,6.451-18.358,9.931c-4.419,2.552-8.937,5.293-13.428,8.148c-14.695,9.343-28.574,19.643-41.36,30.676V7z
		 M93.591,160.757c13.071-11.713,27.41-22.634,42.676-32.514c4.288,4.433,14.941,14.512,30.307,22.845
		c-8.385,4.763-15.381,9.676-20.801,14.653c-8.192,7.516-12.295,18.88-14.452,30.287c-4.094,0.152-7.87-2.283-9.37-6.243
		c-2.438-6.45-8.705-10.783-15.594-10.783c-1.171,0-2.357,0.128-3.523,0.379c-3.499,0.744-6.991-0.488-9.244-3.023V160.757z
		 M93.591,214.113c0.627,0.591,1.466,0.959,2.395,0.959h5.509v5.509c0,1.933,1.567,3.5,3.5,3.5s3.5-1.567,3.5-3.5v-5.509h5.509
		c1.933,0,3.5-1.567,3.5-3.5s-1.567-3.5-3.5-3.5h-5.509v-5.509c0-1.933-1.567-3.5-3.5-3.5s-3.5,1.567-3.5,3.5v5.509h-5.509
		c-0.929,0-1.768,0.368-2.395,0.959v-24.08c3.252,1.553,7.01,2.066,10.714,1.273c4.737-1.014,9.445,1.658,11.101,6.037
		c2.422,6.395,8.287,10.474,14.815,10.751c-0.931,7.245-1.238,14.185-1.485,19.807c-0.177,4.017-0.329,7.485-0.649,9.783
		c-0.141,1.016-0.282,2.142-0.435,3.367c-0.614,4.917-1.432,11.448-3.339,18.75l-9.885-9.688c-1.148-1.126-2.916-1.325-4.284-0.48
		l-16.553,10.186V214.113z M93.591,262.956l17.892-11.009l10.522,10.313c-3.008,8.5-7.703,17.594-15.259,26.173
		c-1.498-0.935-2.894-1.923-4.208-2.947l8.096-6.694c1.379-1.14,1.676-3.137,0.688-4.629c-0.371-0.56-3.458-5.594,2.139-9.903
		c1.531-1.18,1.817-3.378,0.637-4.909c-1.18-1.532-3.378-1.816-4.909-0.638c-6.877,5.297-6.734,12.012-5.13,16.433l-6.712,5.549
		c-1.466-1.634-2.713-3.343-3.748-5.105l5.226-2.723c1.714-0.893,2.38-3.007,1.487-4.721c-0.894-1.716-3.007-2.382-4.721-1.486
		l-2,1.042V262.956z M93.591,286.926c0.357,0.361,5.638,4.947,8.287,6.687c-0.196,5.515-0.496,10.017-0.496,10.017l-7.791,10.539
		V286.926z M93.591,325.945l7.791-10.539v13.595c-3.348,1.472-5.777,4.666-6.137,8.463c-0.564,0.054-1.113,0.17-1.654,0.314V325.945
		z M93.591,345.727c0.613-0.808,1.584-1.309,2.627-1.309c0.579,0,1.127,0.144,1.627,0.427c0.066,0.037,0.133,0.072,0.201,0.104
		c0.477,0.233,1.005,0.358,1.542,0.358c1.25,0,2.405-0.666,3.03-1.748c0.625-1.082,0.626-2.416,0.002-3.499
		c-0.276-0.48-0.423-1.038-0.423-1.612c0-1.831,1.485-3.32,3.31-3.32c1.831,0,3.32,1.489,3.32,3.32c0,0.578-0.144,1.126-0.427,1.627
		c-0.774,1.368-0.541,3.085,0.571,4.197c1.111,1.112,2.829,1.346,4.197,0.572c0.501-0.283,1.049-0.427,1.628-0.427
		c1.831,0,3.32,1.489,3.32,3.32c0,1.83-1.489,3.319-3.32,3.319c-0.58,0-1.127-0.144-1.626-0.426
		c-1.368-0.775-3.086-0.541-4.199,0.57c-1.112,1.112-1.346,2.83-0.572,4.198c0.283,0.501,0.427,1.049,0.427,1.628
		c0,1.83-1.489,3.319-3.32,3.319c-1.825,0-3.31-1.489-3.31-3.319c0-0.58,0.148-1.134,0.441-1.646
		c0.618-1.084,0.612-2.414-0.014-3.492s-1.779-1.742-3.026-1.742c-0.588,0-1.164,0.15-1.673,0.426
		c-0.039,0.021-0.078,0.043-0.116,0.065c-0.468,0.273-1.019,0.419-1.591,0.419c-1.059,0-2.014-0.494-2.627-1.313V345.727z
		 M118.449,443.292l-0.706,3.064H93.591v-88.661c0.541,0.145,1.09,0.261,1.654,0.315c0.496,5.231,4.91,9.337,10.264,9.337
		c5.359,0,9.777-4.105,10.274-9.337c5.231-0.496,9.336-4.914,9.336-10.272c0-5.359-4.105-9.777-9.336-10.273
		c-0.405-4.258-3.407-7.77-7.4-8.929v-15.772l7.535,7.535c1.368,1.368,3.584,1.368,4.95,0c1.367-1.366,1.367-3.583,0-4.949
		l-12.485-12.486v-2.031l33.056,15.035c-1.31,0.561-22.862,7.181-22.862,7.181c-1.014,0.292-1.841,1.025-2.253,1.996
		c-0.412,0.971-0.364,2.075,0.13,3.007l20.153,38l-23.216,4.315c-1.071,0.199-1.989,0.886-2.482,1.858
		c-0.493,0.972-0.505,2.117-0.033,3.1C121,396.382,123.689,420.521,118.449,443.292z M124.926,446.356l0.344-1.494
		c5.255-22.835,3.042-46.956-6.201-68.433l20.974-3.898l3.823,7.209h-9.291c-1.933,0-3.5,1.567-3.5,3.5s1.567,3.5,3.5,3.5h13.004
		l3.537,6.669h-2.541c-1.933,0-3.5,1.567-3.5,3.5s1.567,3.5,3.5,3.5h6.253l3.547,6.669h-20c-1.933,0-3.5,1.567-3.5,3.5
		s1.567,3.5,3.5,3.5h23.712l3.536,6.669h-5.048c-1.933,0-3.5,1.567-3.5,3.5s1.567,3.5,3.5,3.5h8.759l3.536,6.669h-27.795
		c-1.933,0-3.5,1.567-3.5,3.5s1.567,3.5,3.5,3.5h31.507l2.619,4.939H124.926z M187.126,446.356l-62.468-117.775l12.137-3.497
		l56.411,121.272H187.126z M200.927,446.356l-5.062-10.879c6.165,0.484,11.236,4.982,12.576,10.879H200.927z M222.2,446.356h-6.659
		c-1.51-10.121-10.261-17.935-20.776-17.935c-0.708,0-1.365,0.214-1.916,0.575l-9.9-21.276c4.724-5.16,7.396-11.94,7.396-18.98
		c0-4.971-1.307-9.771-3.777-14.031c5.199-6.646,16.954-18.085,35.721-17.213c4.416,0.21,8.277,3.846,11.478,10.811
		c3.456,7.494,6,18.465,7.58,32.632c-2.452,0.227-4.849,0.907-7.08,2.027l-1.523,0.76c0.625-4.538,1.104-8.423,1.428-11.197
		c0.479-4.101-2.331-7.87-6.397-8.581l-6.706-1.174c-3.1-0.541-6.185,0.545-8.258,2.911c-2.073,2.364-2.748,5.567-1.805,8.568
		c0.58,1.843,2.544,2.869,4.388,2.289c1.844-0.579,2.869-2.544,2.29-4.389c-0.294-0.936,0.175-1.608,0.391-1.854
		c0.215-0.247,0.82-0.797,1.788-0.631l6.706,1.174c0.414,0.072,0.7,0.457,0.651,0.875c-0.466,3.999-1.252,10.299-2.349,17.601
		c-1.277,8.497,1.126,14.182,3.367,17.453c0.678,0.99,1.775,1.522,2.891,1.522c0.682,0,1.37-0.198,1.975-0.612
		c1.595-1.092,2.002-3.271,0.91-4.865c-0.916-1.338-1.863-3.306-2.278-6.006c3.252,2.115,7.023,3.226,10.867,3.226
		c0.067,0,0.133-0.005,0.2-0.005c0.131,2.932,0.219,5.75,0.276,8.396c-0.034-0.001-0.065-0.01-0.099-0.01
		C232.435,428.417,223.704,436.224,222.2,446.356z M238.075,408.918v3.282c-1.127-0.421-2.206-0.986-3.192-1.718l2.515-1.254
		C237.621,409.116,237.848,409.017,238.075,408.918z M243.042,446.356h-13.741c1.413-6.253,7.003-10.939,13.676-10.939
		c0.064,0,0.123-0.015,0.186-0.019C243.182,440.419,243.1,444.296,243.042,446.356z M241.659,369.051
		c2.849-0.922,15.214-5.522,16.4-5.996c-2.439,8.665-6.363,16.864-11.607,24.211C245.171,380.174,243.57,374.085,241.659,369.051z
		 M248.719,404.149c-0.243-2.546-0.519-4.994-0.82-7.365c9.02-10.689,15.274-23.429,18.187-37.048
		c4.199-1.804,12.907-5.85,13.022-5.906c-2.78,22.33-13.336,43.139-29.724,58.626C249.193,409.56,248.971,406.773,248.719,404.149z
		 M359.765,446.356H250.045c0.108-3.939,0.276-13.489-0.18-24.947c21.193-17.897,34.451-43.666,36.653-71.235
		c6.186-3.133,12.336-6.452,18.357-9.932c4.429-2.558,8.947-5.298,13.428-8.147c14.734-9.367,28.649-19.696,41.462-30.762V446.356z
		 M359.765,291.996c-13.098,11.748-27.472,22.698-42.778,32.605c-4.288-4.433-14.941-14.513-30.308-22.846
		c8.387-4.764,15.383-9.677,20.8-14.652c8.191-7.516,12.294-18.88,14.451-30.286c4.094-0.151,7.871,2.283,9.37,6.242
		c2.438,6.45,8.705,10.783,15.594,10.783c1.171,0,2.357-0.128,3.523-0.378c3.558-0.763,7.099,0.527,9.347,3.145V291.996z
		 M359.765,238.824c-0.635-0.648-1.518-1.053-2.498-1.053h-5.509v-5.509c0-1.933-1.567-3.5-3.5-3.5s-3.5,1.567-3.5,3.5v5.509h-5.509
		c-1.933,0-3.5,1.567-3.5,3.5s1.567,3.5,3.5,3.5h5.509v5.509c0,1.933,1.567,3.5,3.5,3.5s3.5-1.567,3.5-3.5v-5.509h5.509
		c0.979,0,1.862-0.405,2.498-1.053v24.224c-3.274-1.592-7.07-2.127-10.816-1.324c-4.735,1.021-9.445-1.657-11.101-6.037
		c-2.422-6.395-8.286-10.477-14.815-10.755c0.931-7.244,1.237-14.183,1.484-19.804c0.177-4.017,0.329-7.485,0.649-9.783
		c0.141-1.016,0.282-2.142,0.435-3.367c0.614-4.917,1.432-11.448,3.339-18.75l9.885,9.688c0.672,0.659,1.558,1,2.451,1
		c0.631,0,1.267-0.17,1.833-0.52l16.656-10.249V238.824z M359.765,189.824l-17.994,11.072l-10.522-10.313
		c3.008-8.5,7.703-17.595,15.258-26.173c1.499,0.936,2.895,1.923,4.209,2.948l-8.096,6.693c-1.359,1.123-1.651,3.112-0.707,4.602
		c0.59,0.931,3.263,5.785-2.121,9.931c-1.531,1.18-1.817,3.378-0.637,4.909c0.689,0.896,1.727,1.364,2.775,1.364
		c0.746,0,1.497-0.237,2.133-0.727c6.877-5.297,6.734-12.012,5.13-16.433l6.712-5.549c1.466,1.634,2.713,3.343,3.748,5.104
		l-5.227,2.723c-1.714,0.893-2.38,3.007-1.487,4.721c0.624,1.198,1.844,1.884,3.107,1.884c0.545,0,1.098-0.128,1.614-0.397
		l2.103-1.096V189.824z M359.765,166.021c-0.389-0.396-5.455-4.954-7.894-6.574v-10.225l7.894-10.596V166.021z M359.765,126.908
		l-7.894,10.596v-13.569c3.402-1.451,5.876-4.674,6.24-8.51c0.564-0.054,1.113-0.17,1.653-0.314V126.908z M359.765,107.164
		c-0.613,0.808-1.583,1.309-2.626,1.309c-0.579,0-1.126-0.144-1.625-0.427c-0.066-0.037-0.134-0.073-0.203-0.105
		c-0.477-0.233-1.005-0.358-1.542-0.358c-1.25,0-2.404,0.666-3.03,1.748c-0.625,1.081-0.627,2.415-0.004,3.498
		c0.277,0.48,0.423,1.039,0.423,1.614c0,1.831-1.485,3.32-3.31,3.32c-1.831,0-3.32-1.489-3.32-3.32c0-0.579,0.144-1.127,0.427-1.629
		c0.773-1.369,0.539-3.086-0.574-4.197c-1.114-1.113-2.831-1.347-4.198-0.57c-0.5,0.283-1.046,0.427-1.625,0.427
		c-1.831,0-3.32-1.489-3.32-3.32s1.489-3.32,3.32-3.32c0.579,0,1.126,0.144,1.627,0.427c1.37,0.772,3.086,0.539,4.198-0.572
		c1.112-1.112,1.346-2.829,0.571-4.198c-0.283-0.5-0.426-1.047-0.426-1.626c0-1.831,1.489-3.32,3.32-3.32
		c1.825,0,3.31,1.489,3.31,3.32c0,0.58-0.148,1.134-0.44,1.646c-0.618,1.084-0.612,2.414,0.014,3.492s1.779,1.742,3.026,1.742
		c0.541,0,1.073-0.127,1.553-0.363c0.08-0.039,0.159-0.081,0.236-0.127c0.47-0.274,1.02-0.42,1.591-0.42
		c1.058,0,2.013,0.494,2.626,1.313V107.164z M359.765,95.194c-0.54-0.144-1.09-0.261-1.653-0.315
		c-0.497-5.231-4.91-9.337-10.263-9.337c-5.359,0-9.777,4.105-10.274,9.337c-5.231,0.496-9.336,4.914-9.336,10.273
		s4.105,9.777,9.336,10.273c0.401,4.221,3.356,7.706,7.297,8.896v15.759l-7.535-7.535c-1.367-1.367-3.583-1.367-4.95,0
		c-1.367,1.366-1.367,3.583,0,4.949l12.485,12.485v2.031l-33.064-15.033c1.312-0.562,22.869-7.181,22.869-7.181
		c1.014-0.292,1.841-1.025,2.253-1.996c0.412-0.971,0.364-2.075-0.13-3.007l-20.152-38l23.216-4.315
		c1.071-0.199,1.989-0.887,2.482-1.858c0.493-0.972,0.505-2.117,0.033-3.1c-10.125-21.059-12.814-45.197-7.573-67.969L335.393,7
		h24.372V95.194z" fill="red" />
</g>
<g>
</g>
<g>
</g>
<g>
</g>
<g>
</g>
<g>
</g>
<g>
</g>
<g>
</g>
<g>
</g>
<g>
</g>
<g>
</g>
<g>
</g>
<g>
</g>
<g>
</g>
<g>
</g>
<g>
</g>
</svg>
